<mxfile host="app.diagrams.net" modified="2021-04-13T15:06:17.314Z" agent="5.0 (X11)" etag="q7QWBWKkIYOtpUn6eIuX" version="14.6.0" type="github" pages="2">
  <diagram id="tBLk-hKsZG6ymhzBZaFE" name="Page-1">
    <mxGraphModel dx="1357" dy="807" grid="1" gridSize="10" guides="1" tooltips="1" connect="1" arrows="1" fold="1" page="1" pageScale="1" pageWidth="850" pageHeight="1100" math="0" shadow="0">
      <root>
        <mxCell id="0" />
        <mxCell id="1" parent="0" />
        <mxCell id="bxIwJfh0nhW7gSKYg0st-1" value="&lt;p style=&quot;margin: 0px ; margin-top: 4px ; text-align: center ; text-decoration: underline&quot;&gt;&lt;strong&gt;Contact Stability&lt;br&gt;&lt;/strong&gt;&lt;/p&gt;&lt;hr&gt;&lt;div&gt;Pendular &lt;br&gt;&lt;/div&gt;&lt;div&gt;support&lt;/div&gt;&lt;div&gt; polygon&lt;/div&gt;" style="verticalAlign=middle;align=center;overflow=fill;fontSize=12;fontFamily=Helvetica;html=1;rounded=1;fontStyle=1;strokeWidth=3;fillColor=#E6FFCC" parent="1" vertex="1">
          <mxGeometry x="190" y="330" width="100" height="80" as="geometry" />
        </mxCell>
        <mxCell id="bxIwJfh0nhW7gSKYg0st-2" value="Robot Skin" style="whiteSpace=wrap;align=center;verticalAlign=middle;fontStyle=1;strokeWidth=3;fillColor=#FFFFCC" parent="1" vertex="1">
          <mxGeometry x="20" y="340" width="90" height="60" as="geometry" />
        </mxCell>
        <mxCell id="bxIwJfh0nhW7gSKYg0st-3" value="&lt;p style=&quot;margin: 0px ; margin-top: 4px ; text-align: center ; text-decoration: underline&quot;&gt;&lt;strong&gt;LIPM Controller&lt;br&gt;&lt;/strong&gt;&lt;/p&gt;&lt;hr&gt;&lt;p style=&quot;margin: 0px ; margin-left: 8px&quot;&gt;&lt;br&gt;&lt;/p&gt;" style="verticalAlign=middle;align=center;overflow=fill;fontSize=12;fontFamily=Helvetica;html=1;rounded=1;fontStyle=1;strokeWidth=3;fillColor=#E6FFCC" parent="1" vertex="1">
          <mxGeometry x="490" y="160" width="130" height="360" as="geometry" />
        </mxCell>
        <mxCell id="bxIwJfh0nhW7gSKYg0st-4" value="&lt;p style=&quot;margin: 0px ; margin-top: 4px ; text-align: center ; text-decoration: underline&quot;&gt;&lt;strong&gt;&lt;strong&gt;Motion Pattern&lt;/strong&gt;&lt;br&gt;&lt;/strong&gt;&lt;/p&gt;&lt;hr&gt;&lt;div&gt;Motion Pattern&lt;/div&gt;&lt;div&gt;generation&lt;br&gt;&lt;/div&gt;" style="verticalAlign=middle;align=center;overflow=fill;fontSize=12;fontFamily=Helvetica;html=1;rounded=1;fontStyle=1;strokeWidth=3;fillColor=#E6FFCC" parent="1" vertex="1">
          <mxGeometry x="505" y="201" width="100" height="80" as="geometry" />
        </mxCell>
        <mxCell id="bxIwJfh0nhW7gSKYg0st-5" value="&lt;p style=&quot;margin: 0px ; margin-top: 4px ; text-align: center ; text-decoration: underline&quot;&gt;&lt;strong&gt;&lt;strong&gt;Stabilizer&lt;/strong&gt;&lt;br&gt;&lt;/strong&gt;&lt;/p&gt;&lt;hr&gt;&lt;div&gt;Hip position &lt;br&gt;&lt;/div&gt;&lt;div&gt;compensation&lt;br&gt;&lt;/div&gt;" style="verticalAlign=middle;align=center;overflow=fill;fontSize=12;fontFamily=Helvetica;html=1;rounded=1;fontStyle=1;strokeWidth=3;fillColor=#E6FFCC" parent="1" vertex="1">
          <mxGeometry x="505" y="410" width="100" height="80" as="geometry" />
        </mxCell>
        <mxCell id="bxIwJfh0nhW7gSKYg0st-6" value="Task space" style="whiteSpace=wrap;align=center;verticalAlign=middle;fontStyle=1;strokeWidth=3;fillColor=#FFFFCC" parent="1" vertex="1">
          <mxGeometry x="390" y="159.9999999999999" width="90" height="60" as="geometry" />
        </mxCell>
        <mxCell id="bxIwJfh0nhW7gSKYg0st-7" value="" style="edgeStyle=none;noEdgeStyle=1;strokeColor=#990000;strokeWidth=2" parent="1" source="bxIwJfh0nhW7gSKYg0st-2" target="bxIwJfh0nhW7gSKYg0st-1" edge="1">
          <mxGeometry width="100" height="100" relative="1" as="geometry">
            <mxPoint x="231" y="289" as="sourcePoint" />
            <mxPoint x="331" y="189" as="targetPoint" />
          </mxGeometry>
        </mxCell>
        <mxCell id="bxIwJfh0nhW7gSKYg0st-8" value="Force/&#xa;Proximity" style="text;spacingTop=-5;align=center" parent="1" vertex="1">
          <mxGeometry x="120" y="330" width="60" height="32" as="geometry" />
        </mxCell>
        <mxCell id="bxIwJfh0nhW7gSKYg0st-9" value="" style="edgeStyle=elbowEdgeStyle;elbow=horizontal;strokeColor=#990000;strokeWidth=2;exitX=0.5;exitY=0;exitDx=0;exitDy=0;entryX=0;entryY=0.75;entryDx=0;entryDy=0;" parent="1" source="bxIwJfh0nhW7gSKYg0st-1" target="bxIwJfh0nhW7gSKYg0st-4" edge="1">
          <mxGeometry width="100" height="100" relative="1" as="geometry">
            <mxPoint x="414" y="610" as="sourcePoint" />
            <mxPoint x="234.0000000000001" y="680" as="targetPoint" />
            <Array as="points">
              <mxPoint x="240" y="270" />
              <mxPoint x="240" y="300" />
              <mxPoint x="294" y="250" />
            </Array>
          </mxGeometry>
        </mxCell>
        <mxCell id="bxIwJfh0nhW7gSKYg0st-10" value="Support Polygon&#xa;of Next Moition&#xa;" style="text;spacingTop=-5;align=center" parent="1" vertex="1">
          <mxGeometry x="250" y="270" width="90" height="29" as="geometry" />
        </mxCell>
        <mxCell id="bxIwJfh0nhW7gSKYg0st-11" style="edgeStyle=orthogonalEdgeStyle;rounded=0;orthogonalLoop=1;jettySize=auto;html=1;exitX=0.5;exitY=1;exitDx=0;exitDy=0;" parent="1" source="bxIwJfh0nhW7gSKYg0st-3" target="bxIwJfh0nhW7gSKYg0st-3" edge="1">
          <mxGeometry relative="1" as="geometry" />
        </mxCell>
        <mxCell id="bxIwJfh0nhW7gSKYg0st-12" value="" style="edgeStyle=none;noEdgeStyle=1;strokeColor=#990000;strokeWidth=2;entryX=0;entryY=0.5;entryDx=0;entryDy=0;exitX=1;exitY=0.75;exitDx=0;exitDy=0;" parent="1" source="bxIwJfh0nhW7gSKYg0st-1" target="bxIwJfh0nhW7gSKYg0st-5" edge="1">
          <mxGeometry width="100" height="100" relative="1" as="geometry">
            <mxPoint x="290" y="379" as="sourcePoint" />
            <mxPoint x="200" y="389.28735632183907" as="targetPoint" />
            <Array as="points">
              <mxPoint x="350" y="390" />
              <mxPoint x="370" y="450" />
            </Array>
          </mxGeometry>
        </mxCell>
        <mxCell id="bxIwJfh0nhW7gSKYg0st-13" value="Current&#xa;Support Polygon&#xa;" style="text;spacingTop=-5;align=center" parent="1" vertex="1">
          <mxGeometry x="370" y="410" width="91" height="30" as="geometry" />
        </mxCell>
        <mxCell id="bxIwJfh0nhW7gSKYg0st-14" value="" style="edgeStyle=elbowEdgeStyle;elbow=horizontal;strokeColor=#990000;strokeWidth=2;entryX=0;entryY=0.5;entryDx=0;entryDy=0;exitX=0.5;exitY=1;exitDx=0;exitDy=0;" parent="1" source="bxIwJfh0nhW7gSKYg0st-6" target="bxIwJfh0nhW7gSKYg0st-4" edge="1">
          <mxGeometry width="100" height="100" relative="1" as="geometry">
            <mxPoint x="450" y="241" as="sourcePoint" />
            <mxPoint x="394" y="142" as="targetPoint" />
            <Array as="points">
              <mxPoint x="435" y="230" />
              <mxPoint x="460" y="230" />
              <mxPoint x="344" y="210" />
              <mxPoint x="279" y="131" />
            </Array>
          </mxGeometry>
        </mxCell>
        <mxCell id="bxIwJfh0nhW7gSKYg0st-15" value="" style="edgeStyle=elbowEdgeStyle;elbow=horizontal;strokeColor=#990000;strokeWidth=2;exitX=0.75;exitY=1;exitDx=0;exitDy=0;" parent="1" source="bxIwJfh0nhW7gSKYg0st-4" target="bxIwJfh0nhW7gSKYg0st-5" edge="1">
          <mxGeometry width="100" height="100" relative="1" as="geometry">
            <mxPoint x="356" y="299" as="sourcePoint" />
            <mxPoint x="525" y="281" as="targetPoint" />
            <Array as="points">
              <mxPoint x="580.5" y="290" />
              <mxPoint x="555.5" y="300" />
              <mxPoint x="580.5" y="310" />
              <mxPoint x="555" y="310" />
              <mxPoint x="410" y="270" />
            </Array>
          </mxGeometry>
        </mxCell>
        <mxCell id="bxIwJfh0nhW7gSKYg0st-16" value="" style="edgeStyle=elbowEdgeStyle;elbow=horizontal;strokeColor=#990000;strokeWidth=2;exitX=0.25;exitY=1;exitDx=0;exitDy=0;entryX=1;entryY=0.25;entryDx=0;entryDy=0;" parent="1" source="bxIwJfh0nhW7gSKYg0st-4" target="bxIwJfh0nhW7gSKYg0st-1" edge="1">
          <mxGeometry width="100" height="100" relative="1" as="geometry">
            <mxPoint x="431.5" y="291" as="sourcePoint" />
            <mxPoint x="407" y="350" as="targetPoint" />
            <Array as="points">
              <mxPoint x="530" y="290" />
              <mxPoint x="432.5" y="290" />
              <mxPoint x="432" y="320" />
              <mxPoint x="406.5" y="320" />
              <mxPoint x="261.5" y="280" />
            </Array>
          </mxGeometry>
        </mxCell>
        <mxCell id="bxIwJfh0nhW7gSKYg0st-17" value="&lt;div&gt;Next motion / Possible contact surfaces&lt;br&gt;&lt;/div&gt;" style="text;whiteSpace=wrap;html=1;" parent="1" vertex="1">
          <mxGeometry x="360" y="310" width="130" height="40" as="geometry" />
        </mxCell>
        <mxCell id="5rPIQnFNZe9WU_PVWINL-1" value="" style="shape=image;imageAspect=0;aspect=fixed;verticalLabelPosition=bottom;verticalAlign=top;image=data:image/png,iVBORw0KGgoAAAANSUhEUgAAAOQAAAB/CAIAAABwlPlaAAAAA3NCSVQICAjb4U/gAAAAGXRFWHRTb2Z0d2FyZQBnbm9tZS1zY3JlZW5zaG907wO/PgAAIABJREFUeJzsvVmMpFl2HnaWe++/RORWlVXV2/R0z0rOcDXXISkuQ4CiuAikBMGWKRiEDNhv9qsf/eAHP/jB7yYMC5ANA3rQQpqkJAiEqKE41NAzdM/O4fTeXVtWbhH/du895/jhRkRlVXUPZ3qquioTPEhUZUZGxr9996zfORd/+Id+EM6PICIAmJmaqYgBeOcMgIlUDcDKGxBxZ2dnf39/d3fXez8Mw53DQ0IkWv3DzKGqVJSZEFHNEKBtZzFOJycnZuacMzMRQSRVAUQwy1mI0MxUzcwArLzHDFQlpRRjEhEDyymHEGazNoQAACISQqiqyjnnvQ+hcs4xEwCqSs4S43R6etp1XQjBzHLORLy1NUfEk5OTlFIIoWla5x0hOufKZa7vCZULJ6JyrBjjOI4np6fL5TKnpGrMVO7b+haeS3GP+wS+I0FEVFUzUxFVLY9HRUy1PAYzK281M+c8ESFiqCrHbhyHEAIRpKQpJVUFAGYGQDNDhALBglTnfHkPESCicw4ARCSlVI6vqmXBpJTMTERFcvnM8rsCirKEiMh7z8zOOWZXVpyIeO99qFsi0Zlzbj7fqqpAROUzL1/eb9vm61//+mKxcM4ToXcOEcsVEqIZmFl5oXwPgCIaY1wul92ySzEhAhFubl/5H8De1+f2kOQ8gdVMUzIAyyK2RmrOGdaYQCTE1ZOo61okq1kIgXL23p2eRmYmorNqEgCYmQjVbJpGIgohMDMiFgW8XC4RsWkaZmdmwzDoWkRWSlFVzaCcQPlM51zOKWfvvXfOM7PzvqoqZgYAEUXEqqqc98F7Zqcq0s7qWkIIRZebmXOMSHVdd11npkSsamu8mRFttGlR86omIn3fD8PQdZ1IZqZihcwM7+rUc4lUOF9gBQBEEDEmRnYAAAjlGSAiIha1iohEXFBCSMyuqqqmaZqmIaJivYvyK5hgZmYuOpWIzIyIASyl7L0LoQIAInKORXzXdTnnmFJR7SJS9HFVBe+Dcxyq6tLe3tHRMTuuqtr7wI69c23TOOeoLBciRGzbllbCzDSfz1LKxV6nDDnlaZo2LoeZmSkAFzeHCDeXXPR8Xss4jsMwFiskInCuDf+9cs7ACgDFP9vc/w1SyzNZuwFGRCH4qgrMpKohhGIiAQCRilnv+6loo4Keoi/LR+eci6coIoio2njv67oKoWJmYgYzZvbeF03s1gbaMW9tbS2Xy5wzIoQQvHdE7Jwr71kDlIobw8xELJJTSkSERAiAK5dDvPfb21tdt+z7PufMzGZU8AoAqiaSs4hkyTkViSmJZNGyigARHoBqeeH86dfzCNZ3kbVaBUA1U1VmDiE451LKIYS6rmKMqopoRD4E3/dDjGPOggjMXEx5MaxENJvNtra2VJWIm6Zu2xYRY4wxxo0KLxDcgC9nMdNxnFZqHrEo0hLGnUEql0CtHIgIVRFxBV8DKO7ENCUzq6rK+4A4rNcSrdxrUBVJKZvpNE0xxpzz2mJoiaveUaWe9ezPl1wcsBZwbHRu0ZEl+gYAIm6axsymKRZlaeZD8CK5/C0ieu+bpi6WvarCzs7O7u5uicC89yH48owXi0UJ8t7xHFJKfd+LajH2sFH26zTFxgwUdV5+hUTOuZRiSllEVFc+RoxRtcROllICAOZcwn8REZGcMyJO01RQWz58dXp4vwNQFO05RSqcN7D+dWGsAUDRZ7xxYYupFcnE7JzLOauuHvRsNpvNZsWOElHTNNvbO8PQx5i8d23bOufatrW1xTeD+Xzedb2IFHxvUmnFuRSRaYrjNEkW57go6fKGgs/yfVlIa2WceRWcARHHOE3TVFJmzG4cxwLJAtwYY0E6mBWfu3xUyWYgkhmI5JyFmQvI77tBZUU/gkfzfsh5AutGN611wz23ffMDIjJzXdcAmHJOKcUYp2mSLGsTrN67ra2tpmnKr3JmJJrNZgDmvS+RFjMXL7Cua2IGwJLGKmuimOOSNCrvJ1KRHOMUvB9FmLmc8SoFAYRY0mRqpkSUc44xEnPwnl1JoLJzs6qqVaWshOPjE5FY7EOx8nVdx5iKEi1rEhFLMsTMck59P4iIc+5BX/W8y3kC67cnKyirWUpxGkfHLCKq6hwDlPS4a5qmbVtmV3QYAIJZ3/dbW1tF+4rIOE7OuXEcC0RKiFbXdXE+S6poHe0hAEzTtFgsh3Fom6akwPzanSWiGKcYJwDyLlR1ICJmN5uFkiAj4oLgxWKhuloCzDRN42btlfpCyXWsjYPcTUeZlaCwvMdM3yGyOudywcCKiCu7Pw6jqZ5NS5VqEwA4553z66B45T6a6TTF2cycY+dccTmK81c+IefsnF9Xj6xYXgBSFSIaxvH09HQYejhj6AEgZzGb2Lm2qYg8YUVUIZDIQEQrBwGg2PRpmoZhLDGZiKg6EamqqqrqUusCwOJkFz8CANcOrpSCRQFryfUWD/UiyQUDqwFgUVrD0GfJzA5gFemXaBoAmMk5LqlK55xz2UxVIcZYULgO7hUQzSDnlWsYgoXgvfcpZZFcKqUFoOM49sOgqt77ohpLytZMiRwiGAiAMyBTp4AGIiJlLeWcC75jjMUNLc6lGYgoETkHIk6VzNSMSmXBDJgLplWk5Fll5R49vgfwSOW8gtUM7vquK1mpVeccgJUwhZmLG+qczzkhknNYIFJyRs45di5nATARBUAz0HWmPaUkOQ9DX8Kpuq6bph3HaRyHaYoppRinYRgKYgDQOcfMZtq2s7puylkRMSFKVsWEkIgCEyODaiphH0LJ7YOq5SzjWEAfELFkT4vmLBmATRVAJOecRXJKq2/MlFY35fwGUd9KziVYiwkuge2qLg5QomnvQ3E6U84l289ERTuK5LZtSyoKANQMVMyMkIg4pay6qpeirDKdfd+fnp4WE1yKrqGq7ty5M45DWgsArA5U1gBzzvnSpUt1XackIllEVREAETNCMs1GQIYGlnMyK6lWQiQzHafx+Pg4Z6mbWkXP1qgAIOdc4v2UUsq5wDXnlEXAChthUx45xymqd5NzCdazcqaYBRsPNaUkoklLXOWqqur6jtYVTlWdYrTilhqWN4iI96EwTrwPZppz3vCqmNl7573PKZc8V6k2EbOtEvV3UYKA29tbzD4EmaZpHCdmEilvU4WMYpYns3FdksCNY10W0jiOy+XCOdc0jajomiVTEgKb/L8ZGJT8FF5MXXqvnGOwnsmrF+4IM7OI5JxEtDy78vwLsgr9r67r4ndWoWIOKmAmgNo0zTCMAKuMuqrknGHFnNKSPHLOMcN8PlfVrutzzmCWUgYwACqJJOfczvZ2+R4A1uzBqBoBiDATKqID7ABTSmNMCQwQMYuYWZymlFLxMULwAFAYWAZQCgWwCuBslUEDAKR1Ou+iqdL75ByDtfiXZkZUyv2rRytSDDqaWco5xQgATVObFZ5U9t4jYSGIEDpAQyy0QBbRlCIAlHw+E6lqqeuXukAp0CPRhiFakv+FdUBE3jkAHMcxpVJqQkScxpEd5hxzEtWMwIZL5gyo4zCW8mzbzlJKxT8uZJu+H3BFiSzXa+s0ra2XaKkQr2qw5YZcYDl3YMWS1rGSGl09NnLOIaGuC5XFmm6iZgAo5SsRKXRPRHAciRwCgXnRHNNiHMejo8NSISqBGjMXZ9FK9kok5ayqKeVSjhdRQEAzRCBH5BiAJE+L4+OYspiaQco6xcSsBJQFpoigu7Nqy+yOd+aDizmb6Gw2G4Y+pVU1GAFyHlNK99p3uz+oBLgv0nzCXFVcOyqwWWCbX337poCZq6o6Z2AtRUUR2bDeEZGZvHcbwl6hajA77x0iFmMap0lEzSylmCWpCrMLvi6An2Jedicxpr7vQ/DMxFxiNR7HEdYkFJviOA5FW/d9XxgtqgreN03jq0DOA6KKjHmIOcecVLTUrvq+q+oGyYnUebq6VUFd9cFrxeh8SDG3bSuSm6Yp7QaqRoRTjN75FROrPNw1n+DMPbkL1vK/PSnZKyxx8JkXoEC3uPhnfrUighUWJSF571ahMEL50Xt/zsC6Lv7fpa4W6wyAOUvK2bSQOTCE0j3CVV2bwTiOZlZyAuU+ETE0LRib0ZpLBeM4AVhVBeecmfZ97PueiMAspZRzXiwWJeQaxxVdK2dxzrftLISqYMmyipohEDGTc0SENp5I5FzPGud2h9NLo8WdK63PhopEIflUyLUlYzVNU87GzHEYCBHQEa64u+fKMbXiWt9dTrY6+w29vYSqsPa7CiHdMdd1E4IvLlBhqKWUzhlYwVZcjLVlWanANUculZR+CAGJmqZe0/6hVPxjTKWzwExTkjg5pkzkVWOB8jRNzFhVwdblUzPour5ANuccYyrlojUb1XuPagpgVSAmEoXErckQXJMli+WIMGWA1p3aaDs1VhRv6ZHcufIRjW8YHDsET6Rd1znnEEulwJVgEQuB2gAJi0l9MlTmtysICGiIxHz3xIloa2sbCZu6btu2qqryegkJNiWScRwLwa0fhqHvEfG8gfVeIUJml3NOKZZEelWFIk3TeB82bsPR0VFxQEt2HRFUJ8lL74jZIyVEmKYp59R1RcO5Kca+65u2yTkVIqytOSsA4L1f5yLcKugxAIWUJFncu2oHlG0us0tgLdiQIJqGIxjy8JWnpkp2PwK9vr7zfFr2oX+r9t7RuuexBE3lbEMIXdeJCIAvjG87PzmqqqqbpmGmpmnqui6EdyLyPhS1EmMahuHk5KTU/Apj3axwI8DATLV8VLnocwbWVV+Aka59AMRVTr7o0bquvffMrrQfAaKpppTAaJoGMTQ0QoCUDUjxkCZhbIM3FxTZMVjUCIldStPQZcs7vq22txbLRTcOBCtmNGDkHaItTqSZpdqy6erJtC2hZawiRD1M5GwCoRy93qY2U75R94vZ0LnxdtJlPP5K5gPjH4b22QRDPrzh6tYzBEeMK0oXmUFVVYvFUiQDoF/Vje2MXX3v0N2UG+Bu6ANrH2OTZ3iwGHZvlwEiAjRNU5yxumlCCOUdzA6pxMBQmm2KTc+Sp3EqObh1mLFCZNGpD8aHmxM4Z2CF9c0r5KPyPRE6V5W+AO/DqgFQFcBAQCSP4zTFCCBE3hEjIRgqIKDkqVKo2aXKhZbrmmGEROBs0knRs59Ed67u0osVzu+kSwuYg5DRbaUBFQ1RKzBnrJZlyjLh2GkUnPoYzFjQIlEih4ingsdBO5bOLMZ02As4OKT5B9z2x6BC65cNGIpqVQUiHIbSEFbIhGVB4qZGBQAPw3ktQZsZwApXK8Vd/MtViWJ9k6mqKkTcdPKUp+D9igtWaN3rqptO07SuXFgpCKspmBVi7t0H+Q7P911P9/yBFVbEAFrdncLJp1ViXFVK+LSmg1jOkiUTAXPl2K37SwWJiXhc7gLM6lnn6yikYb5XQYaUx75z2+Av6XTa9ZVrPzzf+ej8ePdElJhNPu90gTApoQYl61h7SqSSdTjCJJBBFdizYyZASIiA6JxnRgBDkraVWdNWJ4hP+b3n6EoLr32t6RdjVguVt1UngqWUmIkIS5K4GJOHEuuvdOpaOW/0WfGYC2vCOV/8KCJybhXIbrp0YK1+S1akNPoWeriqTlMsBLH7HtyaDfxeLuH8gfWs+Vsx8RAtZwBIKXkf6roCKF1Yq1kU3vnKB0DEysChmVpWUfQex9tB0rzdyTgfUt3r/lO1VjpkHRLChM9M+g24c3TqTp9ru5oOquFlrAyGLzAcgEcgxgwkAoygnIhFwXJU8ACkxIagWc3MmNC7yjkFVOdsdzdcunypzpzvmF6mvY+HfpLrX4uVqxBh6IZCTi1dK6U5u/R4lcX23Qs7B7bq2i303KIAQlV555kphKqqAsDKKbF1X800TcvlUOJUEem6buWR2D0oPNPLc8+DA4D3vNjOH1jXSMWSFSh5JTWQUg4wC1UAVAPLIAaKhI6ZkDPl+VPEc80uJSf9wTB3Dd7IcYSRLO51zVWJ/Z08BDkBPQE4gZPPWAKfULuT5L9Yu25Hjw7FvCcUy2BArjJAhDRBnoBJHGVTiy5ScmAgnD0ZAEJEZOeIiQgUsiNot7YqjzjxcAQHl/L+h/HmN1UlOV+VptxpGgFovTgBEUVLO83dROpZV+Ad3YJ1WvYubAr6d3a2i2VviqOJpKZVCCJauDHjOBwcHJSYb5qmYRg2nKEzCVS7/0B3/bQHyxN3HeL3htfzCFYAKCm60i5S3C5F8oQGSOpNr8ZshrsAl8XPpGHoZxrY+hhcdvVodFuPOj4cck4daS0HsftiWOIQY8c4eucJHacd31YyRYjx8M6RY7e///TpcQaMpAogCjLmxNA0CGSUc0ZQZx7BC5AhZLNsk5kRIhkmySqOXTbNqk2UEzWqrbZDGNoYnoMf/tHdl/68e+P1N/vhxNQAJUbv0QWm0fpBBoIWc6yZHRMhCYKAoaJHVMiAQBgKScsAiTBUVV3XRDSfzeq6Li3jhaaTUjKDlOImQ2RmXdeV19d9ZZtaw32Bz7cqk73r786sl/f21M8lWM8ODdisVwIETO3Tcf/HphsWwCImz4PH05ARW6fTLZCRAF00sJHwTuq6GHKugnpWiwboWERESYU8eRewIXLeeR9TnKZoqteu7R8c3DAQMzAjVOdJxQhXIQoqKDlKlkeYDAVgFcawEQ3IWpHtKtBi0b35xlsAstXO25OGltLN9SNXdy4/u7h5sDxZaHB11fjEYjkTUEDWEdVUE4wGdeNwJgmTl5ktrKpqcuBDmDVbxbMsFSBbjevCnHPX9WZaiIjDMOQsxcUv3dvFDcgpraH2IJ42r7zHwO67d7TPJVjVjADWvSUro1NaPLdrfPGKXr/j4FXAjm0iyYxEbKoLwAxEZkimlY/aT4ggdaNNQy4wogewlCIzh1AhAnP2VTWOIw44TePh0eG1a1e6abY8OYVRmgS1WXBDT65DMHbEnFEzDTnANIvqddVUqMYRGdFPFpNM2ccp0zhVHmMcJWfppOfc/lT99MdCFa6++lfp9s2UTNkNiKRoGhBnPPoBGuYM6emoH5ewV7/48gfgLWSBVYkLUEUAIGcYhiHGWKiuxQMuQCxUw9Lhs5EHIp4nsU52LsG6mu20oX8CIKKCkGEL4QqaqxjfDLYwIwM0Q4umgkAKampIJuwcsCOV7FyqKghNjRgQYRg6InTOmxkzMEFKkZmmKR6fnDSzdrtuwklXCW2Ba9Aj2ELlAHCJKMTGFl2CGes+WINIaGoqigOoR1hqFsx9UEUE8sEhmmiSyeJreviJ2Fxys49Ul/10Kxwuhk5hcq4BjwBkhrGJ6jksQeaKV7H6UIsnBLcoxohqIBrjNMVoZgilZpvuDcDx3hDnPtcT7/Iqv4WZf3xViXMG1s2NtXVTXmmYMjNAZUSPCA6byyJ7Pk0GSUnNVDJkQRABRTPIqOAYiJMJqIKB+eCZamYQiWYKoIXkLzmv2rgRc5LXX3v7e3YvPadhv6m2Q+2cz2bjtLye5DWwA9DIYC3iNsAO0IyIEdQ0G3kQR1YRKXIPAparNHFUJGbH3lHluhvj52PeatRfSs73LGMS8jWEEHjAfDwxsBs8WuI3uYreH8Brf/WqvgwQlY0IsJCc7iG8FDo4rG7aGo66uaWbBvdvlwb1+Ggy5wyssBryiCUzBQCqWlVVqXYiKyDCyC7x8ntGTc6uC8XsjCKuHo+tJYpmnZI0onMcO9ekWR2ayplVsbRXxSGltBi6nDIZIxCKhTjq4uDa9pUXt/Z3m8YxuOQW9dAOC0tLse5tHoZ58vuA20KNI8diioJi5uaAy+RkMZuOdZnTi6PiQBMTBPSMrHq9sUFvXR1f2IWfnNVHUn/1BFErOXHT0ZBvD9WNenvc7k4WlpW+wfZngCzu7uzEwh34FnMs7N6xNff+4p1C+ydKzhtYz8i64kIiAoCOApoujvXWN/hSIv3kODyP8dTyMiWKYgGgTGBVMwWwrAg0G7omTjgMY8p3luFk3JqnnAtpX8RErPZVPwmoGoKZbntvrZ9X7nLlLlXMCrlufZSltDcwVtI1bENDVcO5ZqwdOiYTUUBTd+qgwq2rwxV+mU715GNbureb3075hlCi+VKTUjOJ39n+QDt/oZ19oquWn+uHkaZRugXqabKBDAXUAKx0F5qC957YwarF5XE/lUcp5xqsoGa4cgdQgQw4EU6Aw3Wn+wzbZpfBDp1mXdWdAQBAJeeckENwiKgqGCOM4wiCcYzkeDXpBMD7iky5tiHFSTOCVuCR6BiiedhrGw9Ahqe+AabrXdcI7XAYtkh8D86MBQiATLMxozYIkG3qKsc7EqqvbdO1RkeY+jx1kXNqDHGycNsPl6tXAn0o8g9+aPb1b9rhEBNyRQE8hoo84DiOWURUSmK/1JQuOlbPM1g37MhVkAuCBC7Q1sxu4JS/CvqJpFdAbiIeOLNpEzeoqqh6h0jUtO28vTzbcrPtY9SERkjAjktfYUwxg6I5rIyInZieWsP+TZ0+lKaPClW+ZoJRtfVlCLAFIHIuozPKgGoIRmikgGBOzan5mjzXKnBLRQlCE0DZukmZDEDMDmC6ZQdbIBBfuKzPpaDgUqqamVWtehMyY6QhTjnn4hepCBA/kab7YcqTD9Z7lQWucqvr52Jqirbm0JOyw8qjq5K9AbavNhO9RHhAq2bttdfm2ROxKnpXN2G2swfbV66oRgqmGJHUEEaNsY8KkHs1JG7YichbsUlhKfrysPyAW37f3hxQvPkGbYd9S+5Uo0RRJVOCMo8NiNiATCxBwtjjYtC5Kg2DHBPuOHLOB46SRRTRbEC9TWmHDp6S+oheeAFAeJoaVwUETf0ASMSOBp5ilKybiQerQSwAm86BJ9P1fM/CTz/11OM+h28t97ccERb2xRp8KoWK5hw7hNlc9664YcDTQ5PebJatUTkkyFZYBArGSLULSA4g6LSfI2lzDE/fils5Xp7ibp92pmFnPN3uunYJO4Jz4hnzFvCWViZX+u0G3VEcVeXDsx3nFNSj6STTUZre1GHRxtxkcuV4yEZcO2ceEroT7+54OSFWrsVMVT2bcwggmkWzovkQAtRsVD8HR1394Us4dyTgFYKHkFTIeWLG9bAOWwWdd/lomzL9O4L1/CL4nIEVzt5rs9Vkh9WQXjCzpsX9q1BV9MbbOpxKmEPYQ1C04zLMx1SVieZt0zRt5VtZ4DgcL/deO/n4y6d7Nw5nd07c8bKZhlYTmZ9SarB1zVZqmmXlTyksZeeYA9qAMghQpsvbreW8yONxHg5idyv1o8PURHJoo9pCfObtndlOtbdN23tpdy/uzmEOVdhGH3C1vQaHCpHGcQKAup7XVcMk4NV/Xzx9k6/tuWvXaOj90NVqWVXZcWkoZ2YkLEO5cNUuUibN07uB8vyC9cl3A95VVn0tiFmEiXJSZmfqc2aDhOB9dniQYa7+OcY3VzRCZg6hbdrd/f2ZM5Gd4/74+CgMJ8eX6+0q9TSPVT6etNMt3m4SZxEDUoE0pKnHMfEUXCAN4o/E/hN32+0Le6dvjeN4NKZj0QEy3EpVqocPmmyZM6Ue65Mw05nvQzPUtQ+2AyNEStos+1Z1UhuImqYmwq7rJKecgp9qeiUP+0kv282kVybY25vefjvVTU1EhWuCiM65aYorJYqlFVtXcxEvXLh1jjVreUJmK//V+9o5P5+7y/st0Ww4mmFThTCr6trt8tZy18xinFLKMU5T7GezMAp4STO0GYRZmrlpe/t4Nu/bugtVrCttavGaiZBMVUQlWRzzqBqAG8/IMILNt9rJ7M3F4dcWx99M46FqzorG3IOLygI+163uVou66Zt6qryyc+TZZwaWHLIoQL8aTeAAkKCUCTyqwpH3+7EbXDrxO962d+DkmEqb7jTFvu9TyszcNM18NmvqhpnWZdV3VaB/o1nvETMo025XP68JkWdv4opvdpf5+26c3Hvom0RYBp6VRquSYyqNSoV/jojTlC7tq3BOo8gIbOra3H1Epi8kiVNSY+ebupqGUSwTI9VVlbLrge+A8xV6EmDPCohKhsagSsaOzCowVkcwCnrvTGx5Onz21Zeef+aDiwCvcb4jSUpSPpo/YUyeO67rZpaaCkNgT4CAYAAEZMC5qrMIpVQNgwBi8G1VpZyADUAlGtyB/IYNlxZ9cvkgPPvh9NSkr79Mw6BE1DRtaf9iZuf8OI1lnit8S779+ZX3xQ24Z1LoXZLueiuRTZ0fYPUbKNubIZL3oWwKwMTExY47ImTizYApA0MsgyN1nLAf5FrgMeq4gCSKSesmyw9B3AYbjbLzzhHi0E/MefQeEcCUU2JQ3QpGoKClX020mFRmIvIueA1cVWQyydLMkoykb9y+OWxvudovap6yIBgBgwoYUschhzpXgdgHppqQCxcVFRCBxDcpiMt9M8XBXC5j5NBEJ5wUDEQSvUHWaKrS25H9zXzlqlueOABUZSZXprIWJ3WayhiYi4hTAHhUYEVAoLMWvMwQ27RQrwaJIHjvbDX5n0uzRNnJpOxmhkTB12VKBRE7xyIyjRMgxjiNw5hSUtPlYgkIpQeNHaVEIqaDWHaAoJPlm+aPIX3QMFdN13pyOQtiLB3bCdABQhYCGOKIFEpDDBGpmWdiKteCxBRMHeJkcZxG0SSekqveun343DNP+zpgh2UqoIGaWplWFFPq+8EMiRmMCQEQ1cAQSAk4gMs+TXU3RO9yQ0JZJBEqOBCnilvV4HhX0x698pfU/tDsqWdSqPD02MUJVKWMkx/HaZo228d9d4z8J1UelWY1sJXWXM9hMighKp1d+bPZnJlCCKV/vNh0IirVeTMbx3h4eJhznqZpHEcoasl0U1tc7SqhumJpIBCWZCxmBAAIwu7Udf+ftJ/CZrEbjlvHjhXK1JMyow0rZaYmZRLNgMIEpZUUgAtLpuQuVStAAfRI6KtBLVOHDXTdgJG22u1+HBfL09JkZ4AAkFJOedF3XdvO5zF67xwTEo7TULVN8FUikdoiuRNFAAAe2UlEQVQYcTaM+7h1Z6ZARK5xLU+0DFsVz0g1yYnAMSNUf/nV5Uc/cTrbltu38a03dRjG0oiXUkopq62Ga66amC+Wln2kboABQBVCXTdlU922bZqmcd4zsfceEUu/f0ppHMfT0wWAnZ6eFgrmWgWT2hk/wcBWhnTdL3w3p0iFI28AIpKRSzucoZrLPtH2nPBjLrzhq0NHxIVXQIRMHkyjxZBiO6UTT1YHQExZymiMdRcoKGhiQDAgYGPHxI63cPsOH751evOZa0/v719eLE4McV2+h7oO8605Ie7s7GGZZoiAHsJTs15Gqml7r3FtiwpBKuHBk83U50nH5XRyIP5WTsujqRtSypIw9wkQ9q7az3x62tqVL/4F5Szry0czNVVcbxFz8cThar/asvXeO/LD7d2jy7svzWZlTi8QcV3XTVPjek8zREwpFSL6OoZN0zQBoKpYKUOpiCiAlSL+mUPIgwdc89zOtgysmi27zm68nT7xg8gIYEBIxOxCtcUVfUHcjwl/JOMrgQ+9ogUPBKYmAoChyiGFrH6akADrGsmzoJABZLRSjkAxBUUAU8spxWnIizzM2l1SGPuhadvnnn3h+ls3s41I4j5C7rJzibefaVrvKBE45Mqx9yaTi86yHC86uJXrLDn5vh9PDcaY85RiTDmKKWhWzWXgNagaGH7+s3j1Gn3vD9A//O30f/9voOYVFeierY5WC+zdn9d5FLfuQsQ1iel+xvgaOgaARFzXFSIaQFhtRb6Kx70Pum7ZKztCmUHZltfWO0+U4TDFk0spnekEfi9y9u8QS30AJevQa4qgyo5WG1GHqnLc6Kk2k3NXnQ4GR8ZABrZpFlYkaWroxipnGKdMiBWbmWoGsKK2c5aYJiCPhGBKLmztXArzeR0CoMplnZ6d/CXmlKNPOBtox2vE8ZZ6l6ulTynooG6ZceyOl0tVnZJKn3BILEBK0ygZMOcskgrebOXsb54GAODhHfuPf2zI/JGPhb/9q/pH/4aHhGoCcDcD84439bw7Be7sdA1YoRacd0xUfiz942WG1vr7MnyBNzNKi0EvQCwjTksxJsapjOvfLIMzXbuwqpo+NFmdvwjevik5GyKE4Kuqds6jq6hCvkVuT/Wq6lvICxLLUugGpmYmngfU4mZGEHDOkwMAMFItzbToHOdKfVWh84GtdUjOGeas6ej5o+G5ZR3qbW3HetIjtEPNx5MeivXJFj53XqPSGHM3Hk8ToWUFUkFFM2dgKkpEZgIgxe19p0s0NXjlm2IABO7Tf0e7Xr/weTg5fbJGXT4Kcc75ojnK5GhYz95gduX1EEIIHtfjlVOKZZfRnHPfdyUC7ft+s28YAJSutE03OsLZAaIbSslDl9Vqkww33hZTzFnKZulISE7Z+XQdeU/dByg/A/krSbIogQGgGqpm0IEMNVNOxBhzdNvBOc6FL+vI+8CuHt3k68rYIkTDhIhZdBinAbvhpMfrcGVxrXc4fNbDQTIAMZwgTbRQNURTSEmzgiMwwjLClRGQzMDA1JBWuRRVQ7r/TiGIGYO61/4KPsvxx348/r3fkm7iL7+EfQ8XG7Bud3cHV9uWNpt4vGydAwBlmNvR8bGs9gYfzvztPQb8bKfEPcZ9TU7f/M0GuIi4Gpz77uD9zpyE1UdhTlbX1TROx8fH4zjs7OxUEMG2iHx+gykoXu6Px54lKKiSkeOaOajIPATGvZgD2KmlvI/VnI+nRTULs1mrkvOgkmAYT4bDmJYKk0k35iEM/TBMUbJA3V370LPPjB+4sXh1soUBqlHEiCJqmYr6B/RGgKaWARAMDCdEAiQwJGACU1UyIyPYUCEBEAB5ImMDAsXjA/jsH/Pf+0fTz/5i03f4ta9Ayhu39AImr9yVK1cAoOSGFotFFum7bh3llOhqNdHtgVV77yvvgCp74Jv730nEAA/nlpql0vi8v42/9Y/m/8fvHPddDRAAMKWcFJt2hCrDSbTryb8wm3/PM+n0KI1TXfvZbh1aija1XAVF7jJEcx5PcehuaT5Mwxhvx+U4ZtOUc1pNFBNVtRyTrW8TmqUpH9y69cwzTx8E6sdyvWpKZiMA2ipARIAMCAhlYlRxTFfWXwEUDAgAQEDvv04NgAYggHBwhL/3uz5j+OVfHyqPjP4v/oIBFQCQJjMHdo65Hw+Ke/31NwCsbGhWYqyyf813SoP49vF29p0P0R9A9AiqoD7ABz+Uf+hHq6++tD32M2avCkqxquoQWufVx1wt3Hxfhm0ncUuTTVPuTpQEp/HQcg5L5REGtqM4yqSWTLOJmAoYrDap3hzXdNUpWpSmZDg97ebz5f7+UwD+9PQUkQit1AHWf7P6d6MFN/7pd3Q/VGG5hD/61/aBD/gPflA+/kl96SVSM1MiCBdMrQKA67ql3d+iey4JO1h0ESgS1LXtXXLEmdltbc2BJGvD3KhqnGS8nZYno/pu1BGyabQ8SRqzJNWcQIWiYcZEtszJqRmWMsRm2wlc48DuKSSv03xxGm/duvnUtWdms3Ycx5KkK1vB4bo+8mDH3nu6aJMMBzfdH/5z/sW/Iy98mH7ib+GffWZUC2Z03mP/B8XdHcBR4nRcjWWA+0r6T7wYiJkCggosT3lnV8z6xSIQofMyZY+oKfXTNOWUNCcRjJoNBBVJQVWSCBKhGRoYYEZLBgQEJgAKAAZAxecsR1w3PW9OodwuUTk9PWGnITgf4hQ7ADLzd8/1HZD63rWDGXz1SxQ8/NSn4ed/CeIUvvh5jBE3jdcXRty9o3juXtyaf35uLlctAxgCquDhIV25mn2Q09PTYRyJJCkBoFmSrCKGkJ1RVsxkBMSGAEar+kgZYW2yci4JQIqNNysdNJt7cjcNDyu9XtJgMfgpptt1U+/suVAPMYLkrbEnVYfo6L5tId6rKVs9HBMDeOkvxDX6y3+f/v4/9McH+sZrkBKc+dhzaS3vk3d1wDdtEudGiBEygRJgNgtADBAlx0GpjBU4IwaUAICMAQBU7/GjV/+sNaFu7P6qO/9u0FOgrIjZzAOQmRqkql488/TJB57HuolEZqjHJ7A47d541fWLPbC5AqxnIL1b4fDbko1VNBQF+NPPwjKO/9P/nH/lV5rf+xfurbcxK6oZgiJ4g3ze8XpxokVEBgNY6VeHNJgZglvRBx7JuishvK0HjbNqctXx088NL76QPvQRunothMrFJFHs1nX/9NP08jcWN97WcdwzAwAhcvdNl/huhJAOb1V/8C/Dr/5Gp7j3B7+HL38zAxgSmMULEG89+Z0C35YgosJkkBChCvTUM+mDz7svvcRvvQ1gSviOhfKHc2QAACDRjKDIy/n27R/8Ufr4h3F/3+ZznrXUNkqos8bmMwLVacQphpwB7mVRfvdCaGmCmzfohQ9Vzz6TX39N3ni9JLYRHqwunEO5OJp1I6rWd+C9Eq/8yEdm/AiAADKYdywA0M7h+Rft+Rfo+WfdpUvUtOC8GdCUKEVoa516XS7zaTf2vSNoASMYbPzd71bMUpQ33+J/9n/Cr/26/uTfgknoc38CAESID+bJz51cHLAieCxj1wANEFE27uf98cxDkmLBEQ2BGb2qzWb47LN+d5vnM758iduZEAsgZ8Wug2EJ+/tw6bI5L2BsqKDfhcf6zqeEkuALn9O2wl/6NfmFT9vy2H/1yxnsbMbtvMrF4T4SMAEDkAKJEZIhbnZRekTHVLO0SjwpgGbPeWeG85oIwLE5Bu+oDuw9EqJ33DbcNsQMiAwgpghGDwtDBmTg0MjAfeYz/Lk/0Utb+iu/Bi+8qIR6zoMrgIsEVgDZUPqHgYjTGqxoD9QsH4ogIhGBObNM1BNHRGMHe5ehnWEIq7202bFzSmTz7RQq9QG2toGIiTwxEj2qbOjv/67/4z/iT3xCf/sfVzt7c3pIO2c8RrlIYC0Pwxan/G9/T0JFVV2ujojCIzwsKrNKblWacQynRw2AVJUr21aVXY+YiTAQ1ia7Y7/Vd0RUITCsdqF/JOeVjV95xf3V1+1HfmLxy7+S9vbOvWq9OD6rWi79sqY2jUyUELmsRtVH562t2msJ0QDiBHcO4OAW0ZRCMAN1zshRNj05hsXJdne6e3pkBzd7yQyYyic8ojMjgNde5d//fzwQ/d3fOP78/9veuXO+lesFAeuZULd0H6ghMJtDFEWD+3cPe5iHLk3bAAA4DNWNG/D2jamiuLVEAWInxDll7Hs4Ooy3b9HytCEkg0SoGxL6Izkz5GGkv/xLw9+HZ1+c/+qvZ0T9ylfYDBkNjO496pmf8FuHYo9NQ1+QPCsUwv+Zpo5f+lW5fSPceNv3AxjII6/GIRigKKfMKRuIGEpM0A+w7ODoEG/ekG98HV97uT0+3hGru/50PfRvPbHrUZwTQM56dKTDWP3A92Pd4NGxHR0JI20giaUEdk++oFTm1i9gKWeuvh6jXBywnhVE+LlPK1h18wbduqX2XXR6fUeHBYCc4Obbfnmiy2U+PYWTYzo44Otv+q9+KX/5pfD2G7XqdrO10/fdmpNZTvhRnJ6Wcq5kfPkbuW6qj36Cdy/pwU3tFt86BXGvZn3cGN3IBXED3kGQkBKAruuZ7w9YFdHAtt54g65fby/t685eJpIU21f+SlQQQHdsuLq989RT127evDlNE5Upro/AtpoVZrcCAFj4l/8i7l7Jn/oUz+vwT35nGMfK7MnA4LctFxesQKZsylim9TxIuX/4UiiDCCZZarXu5k08uO2RfI4uiyA4RDo66ZLc+ejHn+u6bpomtRXb6xGIABAYAgoiK8DXv0yf/N74Ez8zvvqa/3d/iCk+ioM+Qrm4YFUmAuSC0fcnJjBYEQgjECgQKIoWSrYCOQMAUICYpeuWy0uXLi2Xy3Ec705VesiC624ENEgO4CsvgXP+F37ZfuO3BqftZz7DhyeEIGSqeDeJuS5yrITu36vgsenji5RnvUeOj2g2p/lWUXfvx2XeZcugwroeUWq/q+hv5QpajOONGzcQsWlb55zpI1lLZ+IhBFBC6zr78hftT/8D5zT72V+k3V1C0EKyh3u+HpCSDV7lhP8mG/BQBRF+7Mfd9i6//iq88rI9Pl3wzmJmMcaqrmZtW2aqvQ8RjIEBWJpouaAY6Xs/4Ync8ZGdnNg7dHyfkfvx+9ckth6hXFjNCuDKEDh8nxzW70CKzjs+Oq7remtrq4xJfNRiupqFdesG/ut/NXz2T/Cnf45+5mfDlavuybo77y4XFqzjgABCXOaWPe6zeUAMoO+75XLZtu3e3t4mdWXv9PVQhHg1pcQsdkv7p/979/I3+h//Kfvpn6dQyXdyqMd2Ny+mGwAATz9tH/7o8Pbb9pUvO3p/MlfftpRJeGa2XC5ns/lsNi8jPsvv7oPMw2svQsAycpQQnQD/xefh2Q+mj34sy6hvvaqEpuAAS+VY15UCQ0BAehKqAhdWs4pgSRUBqj1hbkARRBTRk5OTlOLu7o6qApxpQHy4erUc8UyNSlW6zr72JXM+/cZ/Lj/98y07BCM1tTLk9ckjwF5YsJo6Uyo8PnwyM3SIALZcLrquq+t6NpshPqhYH9GhgcgR4ldewi99wTdt+OlfyM4JYirV3/fjHL5zubBuQBXo+394vHlLvvxFR+udzZ8YsdV4DEQRIaKmaWaz+WKxeBCs33IU2HsXJCDEoYN+Qcz8oY8bO7h5A4bxwcl5T4qGfSJVzsOQr39tSmmqayY0uD+t/WRI4a8QTdO0WCyfffaZO3favu9E5F4O1CM5NoAYOAR45WWbJqtn/jf/Czw9hc/9WT49gdJiXijCdr878tj81gvrBozZDLyDmsy/P0WBb18KKRvXY0VyzovF6fHx8ZUr+1VVbyZnUGFuP4oTAEQjMFUwRXvjLf2//oncfEt/7dfpR37EzRpP4BAMzaM5ADxTEnicRYEn6yk+REH0hISkAMkgPe7T+WtkmuL169e3t7d3d3dCqFZwer/6UQ31zmL8H/8H7LrxN36Tfv4XAiIgkJkQOnxiQPKknMdDFzMwGAEmRMMn0Qm4RwwspXT9xo2maZqmLvG4AWy2CnqkgoAIvOjp838+b2fjT/3cyQ/8Z2bmELNC/0ip69+RXNgACwA/9Snyvr5+3R0dPcK+locoKcbt7W3nfM4SY1xX4B7R0e4uAgLwgAa2OCHv8JkP2tZe/vM/JVunWc8KniFBvM9yccGK9uM/iVtb7sZ1evN1fcKxWs5OREIIJYe1XC4f/bixVS61JP0NbLGA4yPa3cMPf1Rzgjdex7xK/xVCABJUj9FMXVg3AEEBE3FmNjs3l4mnp6cp57Zt27a1TSPBoznW5ssA86qVxV57Tf70j+3G6+5XfhM//kmr24wAaLSuX/m/oQg+AkErzdDr5qInXcqWy8MwnhwfI9LTTz/N7B4tXN9Fvvpl+91/Lrdv0n/5j/nDH4FQFcZjGXXTPUZW0IUFq4lXqYjQh4T0pGcDymyOgtfj4+Pj4yNm3tqaP5apowr88svVP/0du3Jt+V/91/rJ7y/LpWReHydgLixYAeHObSSiy1ee9LGkZmamsN6AqWx21/f9/v4+M7//VsEMk+DxMf2nf18//3z+mZ+nD32UV0h9eMOO3oNc2AALEb/v+93Va3b7lnzppSd8MPJ6UjEAAJiBqiBRoQ7GlFRk/bb34yoKWV3V7hxAqMJHPpavXtHFkb9zG8suMY9LLq5mBV2cqqk2M3vCL/PBqF9Ex3Hs+/7Spcvz2bzsz72mYz368wFDMxF79RX8N39At2/g93wP/PCPluZDeYx26sJqVgC9dhVe/LAksc/9RwfvsLfkEyqr3KqZiOzt7SLCNE0ppve1Jl8IFUBHh2Li9vf95at257YeHajCY/MEnmiV892IGRugmqpmQPnr/+AJExFZLpeHh4dN07Rty0z4qGZhvJusIqo//Q/4b/8QfcD/9r+3p6+he3zcpwsLVoCMKETMVK0HDJ4XWXfBml2/fn2aprqu67p+35JYCAGh3URUYvrnfzb9q3+Wtrf8f/PfuWtP/U2e9WGLIUVT1Uwm+ER2Cry72HpTMjOz4+MT5/3W1jbAQ6O2GJhZMvWmzowRmABBDUEQ0CApnKpmM0MqmyXBV79C/+v/YnvP2j/4bfro98Jqt9T3l852YcEKoN/8Szs5iltb07m+zOVyKTnP57OdnZ2H96kIwABlh04zUAEzJENSYzNCIwQGNTBB1GvP4Pf+AO5eFt/Yj/7U+NSzYgCm8D7zoS8s+RoADm7x0OOlS/YgG+McSUqx7/uqqi9dujSMQ5zidx+PIwAgGUq5K6t+SkoIfPVp2N2lpvY7uzjfSszaNHn/Cu5dZmaISzo9tbEvw14U8X2ttlxYsCKiGRkQrLfJPKdiBsvlsq7rnZ2d3Z2dg4MDfUgTXPavUAgWKmtbbCslTt7L8y/alauuaWh3j+smI6Ek7DrrlzZl+PM/gdfeCq+9gutegwhQvW+39sKC1YwARDURaTuzfnjcJ/ReBQmnGE9OTnwIly7vHx+fxBitjPyx0i+1KRZsQHx2211DhKZFRAgBnFu9zXn9sZ+sd/Zs77I895xe3jFE17RDt5S+r4fR3bqhr35TVP3nPz977TUwyACiKnQmJWGK+D56WBcYrIbIy5N50+infg7+3R8+7hN6r6JAavl4eZzMXvjgx/b2Lt25cxhjAhOEDIZIhFgjoGFWyGAGkMACACMIYGxq/vTfpnnNn/yB/7+9a9lt5Lii51QVySabpEg9xiONM4/ERhzDCPJGgCyzyNdkkf/KLhsDWThAkEUMBAjiSWLH9jxszUgaURTf/aq6N4tuTmg73tgzstTWASSQYjdV3X1Qj1v3noNbtwMQrNX9/cX0PMszs1q4Tw+b7/7VAY2/vGPHI6pStXSqt4CI5Gu3eRra5/JZpMPFRlxrS9Y1CPBq+5QoDayq8blMxtPh1ivL+Sr4vOw+hSagSRIo7tz2b/6AUCXbb/042x76Xjd0+5lqCMVWocgy8/AjPDuRLJO/vdtLEyeiEpjlSFID+vnMBi/65fah/MKLi0TtyXrlQRWWWae+mE9Pbu5093a6d+6GXj+N2uGVAzPcFmO1E6e7e/lW36wWTcCMx2Y8wYcfmaMnFGGe0gfNMlkuwmqlvnCHh1ZEUY3ioTQBX7sqX0bBJVyT9fLjzh3t9jRqY2vA3la2v/fMmkbUiaMOGs00iowvMtBNJ3j4EQpv0sRCzKOHZrHE6SmeHrrKtlMABFJAqgCUMkF1vQFROta7taPsZYxM15as5QZ7UUDUxLG5gLtfjp4sozrV72o8LWWEK9Go/330mbONMbs3aC3bkXRibTRBaisKb7zRHAy01dZej+2OETn3xXaWtNM0nJ+n4zM9/AQi5uP/NJ4+sQJHAFDQKERL2XgEqF1LJxBqBMFSuQ7pq1YE5f+adxlRW7IaWEOZL03hzau3eBFdRfWICQhoCVEIFAoLDWAASVjSWhtaEQG4BpyDNcGa0G6bn//Kttt2b8/f3Pe9Pkh0+9n0zOWpmc/06SM5ehIWofn4Y9XQWizk6GgKBBECnjRKsy6QKrCuWV23qpS2rthp6aqWli2msjJNvtRJFLUlKwBVkWBVjDUX8gwMQRX1gFXNSFvGdUTUWKOkoglYwA+2i9/8OlLV2/fsq3eKwUDjSHdunJ4ex76ITsd8/JjHT1yWtv70RywTVS0UqmJCgHIlkh4cmCiK4rizWMyqa72sAlUvEPUka1lxbyh6gZvXVIGCMKQHHSBAcfCqe/OtmDb/3t3WK/uhFYV2J497eSgcofOZ+fSRuT8zk2njvb9rkVOC84WkmeSZV9HFwntxilJtWGmUYlXDfD53zg0Gvfl8unHRNUc9yUrAGLFGF3MslxhsX8QAd++uvXXAuCtvvGUUodfPXdM3XGi1qCoi7dnULxfm/Mx98tivEoJMVrKYa5oiyXBybEsVQaolqBpUlYakpZbTGCWMgoBZrVbtdncw2NneXp2fn5f1W2VRzMu+zG8Q9SQrAFIBmybIM9/bUqKlyMpPUC0iBErSKLScXJIAXJnYsWGdJZvjqzW8+xobDXR7ZjjUTrsg0e16Y3Vn2w22rGtge6cxPTcu4tkZP32MZBVUOJ350SnyTMdn5vCTplRzaCnbCkDLeWNZjIX1Gh3WAKCoCtemLmQpjzVvNqK9vb08z5MkCUHqzVTUmKwAVa2oKjygQLuiqJZxAoGWxxjQQxVqQGFFFAXQbHJnTy20E6PTgWuoNdqN9Uc/A2n7A9PvA6KkyYsMisVK5iubT+17993pUSPJ+eCBPX5Sxi8NKhEeBaC0umErT2UpSL0mW1VxxWphXxFaq9OrLdYkWZxPMNy+NxwOi6IIIdvcY60l6ktWtZX6DUAGxbKKIFIUVKqqBQgEg9B0aDYd6ZtR7hyMpbV2uI2f/lIc9ODA3diXTizGhLid0YTJWSdN9PDQ/OOfkfjGn9/Jk8QKrGpJvULVs+oqX2IgwvtiMpn0+/3JZJLnxYuXyr5kqC9ZyxC3Wg0e6qEODCVfqQKhteXTNRa8/Z3GT34R2Uby3df13u3QjdnpFt1eMnrWylVPT+zHH5izEcdj+/bbVsWiFHujinoRT9NSIJQrILUqYkyweB5IsoB/GTm1WZYdHR31ev1ut1taFL3wf3GpUFuyKnJSHz3IHz7Ivv/DDBiURUX3XnOvv2b7Hb9/CzdvodGwcT9rtVd5JoDOJrz/r2i1ss+Ow/v3XeGDKAoveQbv4T3ywgKBaJANqEJzwECUgK0i6l4JU93YytWI7KmuXka3F0ROT5/t7u5lWZYkyeWuOP+6qC1ZRRTEYqWzpezctL/9XQG4uBu6/dBsuSA2zWS20hB4dN8+PUSWCsBkhdlMikKXCx2PTOlY/fw7q5pulnkxAXg+seT6uI2lUYXyXfG53I8XlQ2uIpPJNI7jOI7zPF8sFpVOxiVXSvhKqC1ZWRrkKE5H9oN/u509A8j5GCfHmmQ+yXU6wWRM7+X4KUcnm/dhc4r5mbGbGz+AbLzm547a6ETLt37zMH7ujK+HoshHo9Hu7u5gMMjzPMtzXNZMlK+JGpO1ygd48rjxh99TgwXDh++78zNdq/Nd4cKsElVclZjN5nHcjbtxr9crxuP1gFC3xVZtyQp1oAc4OrHPjgmKSIMMpbG5gVPkNELYK/xcS7YqaTidTp2zW1uDxWKR58VmaKw2uPK9y5eBbLDcpaS3NjRssIBVY2Fd6TXAXLUArnAsnaUSMBSKNE2SJG21mjdu3LC2no+1nlcFAMzWQixU1SCkKWA8GJQBCGSTbF71O1At7wgASZIsl8vBYFDDtRWAWmtdfQHPpZ6rd9+YNv6LxfPLEBFRbUdRu91J0zSES53v9xVwtfuVa2wihLBcLEejs2632+l07NUuPfs/uCZrreB9MZ1OkmQVx3Gr1fqmm/OCcU3W+qDUeRWRs7Nxu92O47hmnes1WesGVZ3PZyGE4XA4GAzKP9ZjyXVN1vqBqjqdTq11cRzjAp0KXza+TdGAbxHofeGci6LIObdcLoE69K7XPWt9oFpJupLIi2I8HmdZ1uv321FEvhR37QvGfwGzr/WmYTNuVQAAAABJRU5ErkJggg==;" vertex="1" parent="1">
          <mxGeometry x="226.35" y="160" width="143.65" height="80" as="geometry" />
        </mxCell>
        <mxCell id="5rPIQnFNZe9WU_PVWINL-2" value="" style="shape=image;imageAspect=0;aspect=fixed;verticalLabelPosition=bottom;verticalAlign=top;image=data:image/png,iVBORw0KGgoAAAANSUhEUgAAAOUAAAB7CAIAAAAEx9ByAAAAA3NCSVQICAjb4U/gAAAAGXRFWHRTb2Z0d2FyZQBnbm9tZS1zY3JlZW5zaG907wO/PgAAIABJREFUeJztvVmzJFeSHubLOSeWzLxLoQAUunt6OBtpFE0mjkwyo970B/Sk/yq9SnyRTEZKNOOII7JneqZnesFSVXfJJSLOOe6uB4+Im4Vt0N1ooG7huhUKdfPmEhnxha+fu+Nf/uv/Bh6zICIAmNl2uyXiaRrHcUKEruvMrNSqIohoZsTcd33XtSmluAgiEhERmQEAqKmpmgHiw0eY/+63OZ7lhWCmqioiqnpzc3M6nXLOIkJEAFBrVTN/gR8DEYYQmqbZbDaXl5dExMwxRg4BzPx9zj/ii2JmX/UEMzAzMwMwANjvD69fvzocDqrKzN/8O36PQt/3AXwL4lco5xwC933vF2McRzNjIkQ0mK+TmS7/mF9o8zvMb4WAiF+Ph99CcHk7RycR+72BRA/3wHwQ6A/481U155xz8d/Zcoi/55EhPtyHRHR7e3M8Hs3gsYAVAML3fQC/rywXHkspp9PQtM12uz0ejwAgootCMUQEs1prrRKCqc5qjwEUgAgQCcAvJ8KbOvX3QImDdf5X06RxHFXVVD/3JQDAlSsS+ZGISCnZ4cvMRuQH9vtAdjkVYAaHw+FwPBJRjFxrXe+Lt1weN179LCOiX4tpGhFxu92UUmqtiICACrgAwlRVTV3Lwnz9wADMAAkQAAAB0Ey/+cX7nAPwxgsREACRVhttpqqGiP65nwMfIhKia2UzGIbBMcrMIQR/Z/dtfrfTtX6ciNzc3Jr6G8lscBC+JbvyB5R3wR+ARR2qqiO16zq3qgDATIv1B1WVWkXETN13NFNwf87MjTHggx3/Zh/98AcAHPHzn9XNQDzzO/2D5tvDH0REZiJXsER+B9Zax3GY8jTlXEoFAMfz8gSYTcHDYcyAdq3+pcfvD9ZaSy3M7J8YQowxuK/0O5z871Iet35dzff6gEg9nYaLix0zl1Lmizc/xcxMRDxq8aCnmjkCVI3R/HquAcs3u37nz/lKkIvIGhoSoj0c//wyIg6BFyy6O2s5ZyLKPIOZmV39i7iJMFWtVQBAdQ7F/LnMTMz05tGsd3WtNYagUQFsCTetlHJ2MvHtdA8eN16/IKZqIlVVm6ZRM1NDBGaWN8NqVQsBHdCwwMUvJxF5muDM/sLvefFU51tFV8/VvcgHQSIkZlNTVUQgmlFbSmUuDilPaOScRdW9mVprztkh6LdEjDGEEELour5pGqLP5yv8MEIIsCpjRFVNKdVa33IV+47hFQBAVY/H4+XllV8YIp6maTX3iKhqtRYzBQBErFVUte97v964eJAAX+4V/JZXFAHMld8wjH48BvYmWGcPZBwGTy2FEFztMXOpxQbNeULEEGIpxQ/BM19r/qHveyJ2fYmItdZSMjOllM6PfMlFGHMIIbhzQUSqqmbHw0FE/Lm/y6n/w8u7hVdEMBPVUsowDE3TTNNUSokxilQPejxeUTOrdcFiLSUPw9h1bdu2AEBLkL7kZX+f+AbnOM/zAqpm9sW4xtFsNqu981uiljKNIxGllJjDZtN7hs5dXUcewKyP3R9QFWYWEVU7z1UhkrsQzBxjADzzsIliCN9aJu8PJu8UXt31BAMRPZ2OFxeXMaZaxUxng0vuIAIYwINBtiWlL6rWdW0IAdGICADNZH7S4tz5VT/7TDBzZ2N2es+CIVucZh3H8XQ8llIBXL2uNQl/B0DEGBNzOMdMznn+9DmhoczcNA0Rr4976sDfz5WrWQQwEfWbkzkwEyzpi1wKAIQY38wHGHb94XBYc1tvJ3bfKbzCnKIED65LySGEGMM0TcS0BM1z0OOwW/NaAJBzNrNaS9O2TWpCxPN4xcN5M3sIlhDcg3SsuO70ctT6KndbS8nTlN0xBXjIFRgAEXpo72Y9BA4hMs/RvTua7psysx92jImZV/f6HFh4Jos7RB7GwZKBNlVmtrk4shwnABE1TeOfBW9rautdw+u5jOPY932MqdbKHpi7ynTdarrWjdb/Zy8rlWob7bAD9vODS65dSykeM7nqEpFaxb3PKmJqIXAIIYSYUvSylqp6pWq19VVEReCsmuXvWavEmFKK7nSqmr9JKVVV/JmeFsCljLz62eu3cAOyQFaJiEOY/R7RWmutlZk/V3MGACDabDZeLn7KD3wPUkotpXZd1/e9B9FEPGtFgAV2c7LTTN1bNYBpGj0aa9sWiVRqre4t6DTlUrIrJ1WptToKicjRP46ac95ut7vdRdM2i/6zGINHNohUa7nf72eQPRSHQaS6n+3qjQi7rhepAMDchBDHcVg/1AOmFaCruN1wR7aKmCoCEpOK1FpKKa7L3UM4F0Ts+/5wOIzj+HaCFd5tvAJAzpOTCsZxdG3n2S5YWAchBA+rYXEOCAkRSin39/eOxVevXpVSkMjU2rZZohxGjCnpgldGBFVTlZTSNE1EByJs25Y5xJhmPTrXtWDVh6JqaojkCa5SiivFEEPbNH2/maYR5oyYbjabcRxnE7GoWE8eO0ZXL8IzsFjKNOVaKxtP01jccw3Bj99fdX66mINX4+D35ir8geTdxquJyDRNMcbLy8vD4Xg8uvLAtm3OeUzMnFLyLNLi0kIp9eXLl8+fv7/d7UrOHtEQoidBV0PszCnPgYGZmgX2irwt7+ZIohBoyRVQCEFEbE6ePYDGeQ2IEENw11N19g2YiZmPx6Oq1FJqqTCnMjCl6M7J6tzgctdN0+SKE5aozg9bRBbbMgsiilQ3LPbVJK/vV95tvIKXbU6n4dmzNsZoZsTsbEIR9bjewaRqnnp0b28NoY7HYwjcNA0zI2LOuWlbOsvQ0kwPAETyMpSqAUz+5iJSayXCENjzR4iQUmNmNzc3YOpvYkuWCxFzLqWUzWbjCVcRLcUTBdZ1fa0VFsKXLcxAEfE7AR4iMHcqZv94v9970XV1ed2V/xxtcs5yvJVIdXmX8epXTFXdb2PmECMixRhD4KYJtRaAJU26WFcEWFL15NpOFd2mxxiYOcZEtMbWD/8jIncrc84itVYjYicqELGXUlecG2yOx4N71Q8OLAAsldXF1KOqnE6nYRg889A0TQyBPVc6G+7Zf3WfZNaaCAhAzERYSrm9vUWi7WbTtu38db8ASi8EEr3FaH238er6B4lU7XQ6tW3bNk2h4rFI2zZVghdsHUl+vc2A2ZHnGtGWAIWd6A0A53mkVV05Xh2jIgkAiLlkLaWklNa8vVf9Ywht27r2VTMEtKX6pKql1Jxz0zSuoWfFz4yIFxcXiOhEWn9Dz1Xh2WGtRl9VeebQcCk5l+Juz1eE/8jMiJ/Xu2+VvNN4XU68qyjmsCLAg6QmpVU9LdmuWVzDrpG1s0ecRDKzVx8ySQgAxMSuk4lEOKVIhLXWnKecc0rNksk319giEmMiHhERzYjQOQb+nFLyOI6paQCAOWy3WzVjohjjZrMZxwkeiA3gbsMb2n798kuy+fLy8nQ6IkAViWYc2OZmgzdO15w/eYvlXcbrQ8IIwMxOp9P19VVKyRWeMzw8e+/JLH8JrgwRA0PzrLzXUv3dFuTBYnwfPs4L+mpzwex0Ot3f3w/D2Pc9YkQiUANQETkejzlnU40xMjNzQMLAgZjAoO+758+fX1xclFKYyavE8ECYLBwCOZfWTJVijMxhTjssNgEAbM6zStMkdzO8ZEDMM/P3TMzsK0iIb5G8y3j9nIjUYRhS06SUVhVLREsmEr9YMfJcJnlXjfP8V24zmKp5tdbNeozRC1f3d3ciUkWcJmYGs3EHKCUfj6ecp77vdxcXeZpKqQaG86eju5ullHGcLi6w1rrmid2w51ymaWoAArMfz8qNRCSDxbEwIHIH18wU0b0CVJVpmkKM8OUM7fnbv7UkrR8SXlVPw4BITZNEJKU0x9dIDpdaFWbwzUUs/7vrurbrVPV0Onl11Ga0ulGeKYLMYWWcAICX71NqEOl0Om53u2kcT6dTKTWl1G82uATwSz4YnPB6OBy8GPb8+XtmgESwdJsRohExh4Xb4PeM1VrJKQVL94EBiNhSlrPlZtPVLQEzp/q+eZLsPM/wHV2Y30Z+QHgFM6m1lOzRfSnFiwju/NXqBP7V9M+upBe98jRJrV3XpZRsKb0vwf5MsmYmMzWjtm39kudsRECE9/f3THTMudbKTDGmMIdfK5kBAcHUSq25FKn1eDwej8eZKTY/y0N4J2o502rGlsdkntyYnWCn8JqJLKSwOQ0MZia1Ls76G4q0lLLwCd9SecfxuugaXH1NTyF5mF9yJuakc6J0ZvEThhAdKH6BvVXBa0Jt26310oXENAPXqwPuFquqyOxd+pvknM8z/DAHTOp4Wo8WAQhRAGutwzBsNpszSJkqLOp8VX7mLviM18X5njvV1FTXjgpdqmjmFd01vlyLe35y3k7N6vIu49XWv8DMkMhD71JKNbOUUkopBA93aOU+41mDlF88WgL/GGPTpFKyiPoVdr0lokgUl9cyc6k1pWimpVTVjEivX98wz53cOoN4xrqjbX1xCMGxtZLH1m9EhKfThIiICTHg3Jlo/r2czOXvvN4D852jAnNExSHwNE1LRPbGRIJaq+rb6roCwLuN17Vn32bGqYlUAEwpxJS6vvcygTOqPLsJiEzkXqCK1lq8dXEFjSsnryetQFJTWoKUGKMZ2MNln9EwjmPbdnGxwrUKMzdNcoVXaiUArdWTuLVWkTpNU99viMgtu8/ROJ1OMUZEUp1rWutxOCc8BEZEEecuwgJcVFOaObqzX1trXfzb2ccdx7HWYvCFMOytkXcar+diUKWYWYwxpZRiBLPNdgtzioBXT9H1Xq11mKbDYd80jSstWCz+F9/bw2x9kAxwzlQ0x7e7Fp6TLyWH0C007QhznDeTDGFxSVW9Hd1UdRynUqqntIgewGoLW8DzA67v3Zj4c2otc3I3BDCrogsNfOVJPpQqVqvxdnoF7zZecaXrIWLbtl6MbZoUQvS2kJXi9JB29VcuoQmsmfkz1tLZtXzwZs3gYXqMP21mhM1U6xjj2heACzt7RZVrxDWWB8Aq4gb7eDyeTgMApJRqLV5TNTv3nm0hW/kIJDNDNVORWuuUs2evbNGsRFRF3kCrWa2yPxxKqW8t+RXeYbwuOmJ2KNcmPq/CxxgBsNbaNA0irXl/7yAFJ14xw6pylhDdM0dODFwvKs5/mYpUJGYyffAOa5VapWkaPy4ixoWtsnS0JgCvuz6wHB3F3pUwDMM0jczcda0ZrzcDLc7r4k+bKq4Bvj9eSnFGInjqzZzpAiVnWGiK/ibTNOUpq+lT/vW7lsVKug1n9wFCCMRMOFdWAaDWGmNCVJM5F+CXShcjCwBrV4nnO+uSCVrTrmefCSIKUPysisyd0055adtGRIg4BEJAVR2nKU85xphSRIScGdETrE7y0lrlcNivJQNAdB4tnhU1/H5YojI7b73y1vaccyllZo2Zef5OVcdxNJt9GFfx05TN+WJvqzMA7xheF8uM7totXVCzGmvb1uMqb1Dxkr33VKHX8GnpiRU18HIrLpcT1rYtAHgoz37xGEydvyIqntMCACLMORNxCGaz6Tbv3TVrnQiGM+f/IVQTqff7TMsIDAQotZSczxGr87yMB7OuNjeLm5m395gZMauIgdFcy5BxHD1vsDrBjl1/8yd/4DuR2QlYe10Wauly/ZDIW+3cLvucrDkzsGTaidk1kDu4IuLuqJvvKnXppP1yvAKAiMQYwcyzVzkXRKq1xogitdY5biulnIah1urNC4SYc/ZuML+viMgrGjFGv9mmcXIO5Not6Lkwm31WVTVxCM4TOqrXQWDhyDKxitQqwzC4bl0bExaH+MEj+kNfrt9B3i28erFcVVVDiMsZn4N3AAjMRBwRue9Vdb8/AEDOOaZ0sdsxs1dcFcQbBLbb7TjObSSIQMxgsEzgmsOdc8dg/XRYAvxxnHKenIDrKX239QCAiF3bNU1q2tZ7/4lomrKH80TUNO0wDKrWbzZ915VSUoNO+FJVR5TIHP57M7raPCDMPyKl1Latpx28COIdBDmX9R3WBLUjVPWtzQ0APHa8Lu4arXkAAFAzzxB5ucgvifd80pzyxFLK3d390ssaCNH1EM8kEghhTsWP43Q+zxDmPK6bUViIXejdBDanrkB19HEVawaemUOIK0HWzIh4aVKc+1232y3RKWfyFO/pdBSRtm3B7HQ6lVLatj2eTsPppKorqJZ+stA07KZ8s9l4fOmtO36/1VoRsYqMw7iWD84JBIvnuv70NroEjxuvAPBwZhdd4SnUOaf0oDbUTGMIKSVVm6ZJpKaU1lKWJ/DxrHfPSXrrUAJAJJHTXCEra6TCHHBhvZiBqgCiiI8dKLXWNbFPC8nazTATeo+rH9Uypy140r6Ucnd351g8Ho9rpc0LrAAYQ0gp+uwMDhw4rI5N17ULeZx0KchO0zQMwzgMPsn5PL/xiOQdwKubMoLZ6/IJFHPPICyegF+zRX1WIhJVRPIiv0chRKQqa69BjMFHp5VSARQRq7m+1LWBRVUNKtgbqtfToaI6TVMtxZ/mDoaqAYjPgPcxBTHFJqUQok+1CCGkFEWklOouKRHXWhElNc1mu/WvQ0Rd17Vt23UdADg0z71wmMmQc1xWa52mvN/vh2Gwt7WX8JvIY8frHGcwg7dKO1N1SZ7jeYzvQb2IOm1FqveZmCHKPBdWffKUoxrAEKvPPQ4hOjN1hYt3Eoyj1NkXnMFaqyyJVXD9+ubRihl5oatpGiIKDy3UCAAhxJQaABCpbds4MaVWKaWkFJ8/f353d+fF2LbtmiatYxUBYPZHbSEVLIOPaq3DMB4Oe5/u7Q7PuXJFxMeiaR87XgFgngjkA8/WZNBKc/Zr59minHPbtk3Tmo1mNk1j3/dmpiLrwHWiOSu5zq5qmpaZPA9PRN76BxBca47j6PV9/9Ex6nzw1cGluYNxNtnzv3jmLTjWveobUwzM7gaEEHOe3GkZhjHnCQCapmnaZjidaq0xBkRacIlL1+Ec6ZuZqInUcRz3h703dn8RrLCy2B6D0n30eDXz0WVLl+tSofSx2rSUAUIIl5eX2+22bVuvaYUQaJlWLaI55xBUVWvlpfHQPQ04nY44Tw2ylOYOWycZqsrhsPf+gnUOsodf3knbdV3TpJxzjPNULC9eNE2bUlwLwkvVLSyj39FLDD5YwMxCYNH5Ys1qHteACc97sJeKl/jooZzz6XTK0+S8AP1yLvZjUa+PHK9LBv+Ns49zkPvwMCIyh1olpeSTBEKwzWZTykyg9nSnFz9rrWtX1qqKHIhmNo5e8dcYIxI1TVtrdWqiR1T+EQAYAgOAAzHnfDydzIyZU2pSisyuZP1+cs7/HFGtTOqcszdBuCdTS1U15rDdbPYPwzltpeE6QdaB6nmuUooPBANAVZ9/v8Slby+n5evkceP162XmVNucTvKJ/Z7iAQCfPe26yo1z08AwDKfTsFJhPERzQqrnm5qmEZG+773AW2ud8hRDcG4XIXoWCQCIaK4tER9PJ1MFdgLDA197HRfsXQxL2A4LH4a8/Ds/D6HWwsxt255OQ63lXC+qenJC/Bv5nK9Z6y/z7+1zNv+xgRXebbwCwBn5HxHAa0VOLQiBiVsRrVJB1S314oAKLcMvNpveQdQ07dXV5Xa780RYjCkE9tzWWj5wg+tsLP94ESm1Hg9HAFtvFbNlENEySPCMDzDbaz+AaZpci4ooAIzjFGP0NSFu62FpFPOys7sBADBPWZy5LHo2Rs5Nj1f+4Mu21LzV8sjx+kboMLeYnvtiCOaKCgDXpA8izpwtgBDYJ8ApIjNvttvNdltLMbOUUtf1u9327u7ODPq+67qu67sUY62VOcQYENGrUAAK8yYMj7ScfEi1yjgO56xqmOE4T6aAxeP0SKhWIZY4T7pG95Kdvg2IpeScp2mcRCTn4m23vjoGYJnirboUVwHggQW7NsMs52o9dSv77BFo3EeO17OyFgA4ZM/P+TKUao5pcs7jOMYYEYGI1CyE6JnRruu8nXAcx8KsaiGGi4sLA0MkkTkzNQ5Dk9J5ocG3sKye7nkhnghF6vF48vBr6QnzZBgC+HDPef2iR0LjOIpUa1sAmIkEIdicQtbT6Xh3d2emIcYQ8jiOABBilJnD5Xr5vOd27vb+0nP3JVGXnf37rZTHjtevF1zCJnU21lqaGscRkdAkBPYR7I5XAOB5uqCUXErJRNR27Th4pb4CYM55GMa2bTabDRE3TXM6DV5QWM29/306nY7Ho6dvXYP6nBhCcj+CmRGZOaYYQsAQYtfhXCJeOLKn02kBHG42m7u7uxhjrZKaZuHUQiXyEbWrklzyWcuA5Tnf8X1chG9V3mW8rt6hX/ucJ6ez+IgXrx2UUhAhpSaltOobD4BqrcM4bvqeyROiy8quWh3lAMBMPuMIFnKYM2unaRqGcb/f51w8wLK5v8DzuMhMqWGmSNQSNkRgNrlWW3IU6JXYacrrGPsluRGcBbHyXeZNLzITcURUREXqQ8HiTOs/anmX8eri+XlVPRyOsDTGeEWq1rJyTdyjtXmQr6oaotRS/McQWARqFSL13m4v2PrL5s4+M1OttZ5Op9PpNBMFEYhZRJxm4M6lk2kQFOaZR6yKWg5e6V2aZEB1ZqmurTr+cpzztZ73MC+kLcUtrxh7wa6uE2HxHVCtAPAu4PVMZ7ypPmazyMyE5MlzAEMiV5M+MTiE4MXbtbLQNN6doogk4iSsmSFaSnHGvog0TTuOHRGJqJOnPDYvpRwOh2maVv4KIYrZ1dVVCFHV13WgGZRaCRGxECQiArJSJkRQC0GDLZs8RCTnh5ngTnnxb+hl5jWx4BajLuK6lpbm3jkf8ciB+8jxembhlpz5+hMizb6gmdYqPj8rhOjjsHzcVUxJRWyps/vOyxB0Cd5xWadBPvnldDpN02QGKSVXhCGEm5ubWmUlua5sG2b2qkFK6cWLD8cxO91EROfInSpiVSgozIFEs1kttTAxEvmBTdPo2VZ3TS92uzWj6h9qBm76FzqYnqfYzs4RwmNH66PH65fJXLVnCuS1Tch5JoD6ANS2bRHheDx2XbcEKLYuDvBOPuZAVNu2CRxiYgdZKLmWoma1FOesmNnhcEDEGIPnOGlJvnoKwl1n51IBkMpM1BIRZjDzNJSYadWsOk3TIL4hg8jp4aXkcRzGaQIvj8VYRfI0qapj2oe+u0d+HvC9A97qF+Udw+tDgdb3p7jWfCBJzezVHELIOYcY7+/3RD7/v+n7DjGpAqEFLp6TN7BaBXw1gVqM6XQ6Of2gbVtfQDeO41qsd5dRl3FxiJhSurq+dlZh27W11Pv9XlXMKiIi9IgVgZGOSGUcB69WuLNbax3HqZTsW++Y2cOvhTBuvgJ3YSo+uC6uv9/atNTvLO8UXt0OuyfqmnUeYK0+AQCWWrwh0m6381GEywRWFjFCMyMlQ5qXtYpIKQLg04zNY5q14ZaZq/gKxZllAoCEAPNodnTeYC315uZGVZmj3x6nU/G5RirVtBAFDgNxnabBe2BSSkR8Oh29BOCF1RDY7705NYWoD7uycC0QwJwbgXco0JrlcePV7aaonkcVa7wvUkutujiUHlj7ZIymSU3TvHr1CpeuKeZT120NzJRLLSKnKnm/34vUpdREnivwdkJEmlsM1JfRypIl9fsBEREZDTGXqrIfFACRmMVsmkqpQpbFoNSI2gSOovcxKnAAYDSfVtQcDgfv5QphHv4l84h3XMZ4gL1RIpnheZ5rdcX71ngHuK57Xmk666/+SYPwyPGKAEggK7nOl8SSx1jermwzEYmYkYhS06yFWd+EYZZrrWYaYkOQzCBnnaax1OPpeKo1r4M2Qoiq4qs7Yiz+b3cDxnH0YUEO6JSamGKICYhKqVUnVFI0QxDRkqsBMhqGoNKJvGfQtPG2DaIhBIhac2xj27Zdd3SFqsscA6kVQ5y3YuDC0H7TWcWzgV+rfJ7s8v0Ifj5FgeDodS/mvGgNAAC2To2YyZbf8fF++7IQTcyACBysIcRSslQnfPjj2DSNN0Z7YRYR1cxUalVEYKbT8RhDQGAzU7NxnLw+BABeTai1DsPJ868+0yDnPI6TU/hyzmss1bZt33WpaQFQoOaKRKQmpkbEfcs5T1O1JoBpM4y7HJvd877rJ9XYplRrEa2I2Pcbf+dcsu9LcvcG5jrw77U+/PsQ886PhztqqQHPTHZ6YFT6303ThBgDc9t2KcXHj1fwcvlM73AGaikOoLK0rc7fv23nLVz+qialYfD4Bo/HY86lSRCDIWnO0ziNCHR/f7i6ugSYd68Nw8hM+/3ep1R4ylPkocN7bSJo27ZrGzAplShEtcksmYmhKWJGOxxfaRMzl2MuaPqTP+MhlfprSFMKFC2r31QxznMzEUBVci5EttJzP7+E4K0XBAQ0N3frg0S0210gYde2fd+vdWZnzC2tbzqO47uA11XcaVRVkeq9AGtb82azcZIKALgjeDwenS/i1Od52EQ9NSkRm4gQ4vF4KqUcDkfPdg3DoCp93w/jmCfvlpmhv9BZEABEdBjHWsXEJwYbB332nD+F0XbSvQfQYx3KZlBo78qv7vN/VBzi8MGnzfs3w5gOPw9xSE2K69xWRAyBzaKZ5VxqLWqWYiSeWQFvgaH/RtI0bdd1zHOz5LpCIsbktcacyzAMd3d3nu5Y9tvr7KeDPXq8IiKzt1OjzxNwbnVMsUlN0yS3Jq7zVNUnBNYqpWgukwEpiJkGiyxysoGmGAMyVTVQ01wLjOBbsnIuZnC92V2nbn93O42Dl1WNEAAJGTdUri2DxUstf3TIu0pJsa15LJ9mjFhBqEzJDtBmoE+6/b3WV0SfFav19n8/7f57nZ7dTb/m+FlnTQNMSIg0e3VuKPu+u78vtRREdJIYzFMHZ4fvd0674tksnLPiy8o/XHuOP/cJ50+bf9l1nVPj265LKfkzfAeO32Bz35uqGVSp0zj5nenevy4FPNes5/7uo8eryzmvBQC8dy/54s2FJe3RvIhRwLwZAAAbj0lEQVRMUz4cDgCkqjFEQlYTRTQEUMyZyLhpI4VoTdN1PSGollwKBTCDwuHiTzbIsEeBZxkupBxZ/sYMK14CBWhV2ahi1axwhGGvNeMwSQPGQliIKpMh3areJL0DOGUEq7+x/NdN+JcKHwGMVu+NzUwlUgipMQO3BrTu8RIxVSOGOZb6VhwDnGeQAszQmotkcwP7TPme2ZIz18eze070wXnc4ho/mYq7ZDpN09INb+6wLRsWZG7t/Ipb7fzRR4/XJVlDzhgUUQ7sStSdSyJxMPvQq7U4FAIxNykmH5JVJSOHrEnLhTFzuOd2jEzddscBJhm01EqZWz2cbrr3d9ufRrpsj7sDAuve5BOS0cCE9hQU7EBjlUTCA55eqggWMkOKzCEgEBqxSvCZ7mY1BN5tdu3e2rst/6ToFep/jnqHgDVxQuQ8b3sBfVgAZj6T69tiWc+adVHRq1bzZiGai9sR56mPFAL7WNLzJh9XwsuQEfHpSW7ZpimL1C98KKw+1Tc5yMeN1zU4Rpp7UYhoHtmrWqsPEjJCYmaPirwl6/LyAgzFlFvASGAKRQnxJHGqV6jQpGOzK4ql9gPHho3JAOKE2zL9p09ffnz/4/c+vOq2p5/d2N81bIX/iustKWsUUuIsClggniJj1porBDYKidDMpIiiICCEEH2YUoj87L3nfVfSIYbtxD8tinT3V4CkDYbTlMuQaylm6jMxaR64Wd1v/lYgyyH4dNgQvPdh3keemiaGyEwpNU2TAGBtk/fkyTRNh8PgeTcROR6PKwMYzoC4lDjOLt9DcuObHv/jxiusjfMGIpIShxBsnkhgtYoZ+DxKIFM0AYEAHMjQQKxy2XzA8cJKyKON435CvKwHPlqNaWyuc781SKO9JLircU/p5uru5YmUjn817f8LXF5dhVf19v4VGakURCBgQlIEQ1GQUyk4BUNMAUigYja0IHE2k1TdvAMgYAh91zaBIerrGLdD9yMZ/y4M+yE02LdNrjIMg9vNpZ8W1Ezm2bTweT/yKwSXVsczGoyTYujy8sJNvPdZIJKZppREtdZaSx3H4eXLl05n8+lGi0cLZ4lV+9xnnX3oG1WMs6PFtSfnn5RHjlfvf1m2CDlYV0vGSGRsGq3h8tGxIKedNc8Ut7mAFqZmZ1MlEwxHCb+C068r2z3pZ3ZHVcrxtQKEXMYmYOAA1pKFprWcMxDvj3epjVfXu5d3nzaIjBvTqpanqIkjmrF6i6OaQVUMHBnYhArIfHmEDZTikdKg0NdhPzEFrc3fR8jt8JPK/5rp354+/uR+PxymPGgtVgszs5FAJEYBGfMYoYMQAAkNEHy2rK2FWefOrjBpmqZtO2LabjZd183p6hidWWEzvWbc7/fuvB6Px7O+xYfY5/zfywNfeZW+8ndn7LpveMEfN16X2BjWfuizejkSob0Q+fMDf2CxAuNghfOUeJ8CYGQq/6/qKAMwaqMH1s/2Qy0sNTCTmk5gZqhsAGqGSEyh6zqfJzCO4/F4eHHx0UcvfvTJyxtUJVRQhEyGypYMq4EAACEToaiqrMemAARqhmYGxEGqffzJJ/F13W03XUrJqLmk7k91+KXd/4fjcTpGws1mAwb7cVAwQqQCWhUJpzo1TFUFOosNwz0BYN93nsvrun6Z8RGQyNS8BbfWuoyRIzUdh9EzSmvToqvFUqt99aTb3//y/bbyuPEKAA9LfuFBAXhwSoaAhptKFzL835cRqhWykbWwEgViuBerDMgIBBUtn6BCDNAkalLk2JopYjTTJVNmAOq7t32nwDiePnj+3mnIp/39SIchHqemYuB+2nVHZiNgV2+GiEtxGADUTBnREFTYNAJQyQpQx3GQPGCByPF62zQfxqsPLhJEEGGkkrOaVjQICo0KSwnCjdVg9hPQP5Etbf/s3/2J23uYTTCoijN1ci45Tyuxywt1MI+ur59rS8TzgeJvjTx6vC6t9GaANleiZ4fJwGAP+JLoymyK+HGCqghmCBUN0MDUzBAEzVABAzaKMVrbYtdGCh2AMPM4jswUYxBZRw4jM5WSb29uLzcXm6tw10yHeBx2x7ErU6DLW4Ff9d3QMtDK8jvrnwYAUBMwMgumniVAQp5pDyed/tGgbS//RPsf7zDx6XR/kGHSqV5kSYwMFkyjjlS4sToAv2D85yCs/P8wLDOLPFXkBHMidJrsyjhZ6SYGsKwZf3BDZ190QevX2fvvkGn76PEKADCPC3a6p8EygkDR6ET4WYSf8u6/LnAXy73qMg7bQMSq59kNSM1iBC1GagiKDCmFEBom9PXHPgYeAMZxnHJWUZG6v71/ya/1/SE+H+25wbO0a5oLDOPNaeAQfhNpYKiICsDLnkubYaAiAIDAjEEQRsxGGTk0wdW9Hj/O8oHJFUzptJ/2BxutgYiU+oiqdWSeOEq0bHoD4WeYJMBWfv7zv1tOiz38781mw8Uizb9EAH1jPML8FHi4x75Wvmmw9C3Iu4FXw7MNlMSMMymLkZNOUT7W9i/GfbKBALKQKhDi4pUhopmoWeB0DwhTl4GES2hrn7ZST4gGoCKaS8nTtN8fFTEYBIVi5W9++fM/aeEvn1/+55/az/7o9XNu/ofTj/7XH/8jDaQg5SaHm2BDMFDGaIBqCj4qi6MSRgAKJH2YPhLZTpOMHTMHVLCJp/0/duGPj6cPpqLa6yZZ6GOXBIfXx8NniK9DczL5tU7HEQ3wPwIG0jBvrP38ObJVD657Ct5kQ32JlvySYP/7lXcDrw9iBqYKzG5fSareyOkXYft+6P6N1H8f8j9YrYWAdQ4tZgq2qAAGKdfjsT/sc5HapLGOL2PgYcjeKiNiqliqgi+CMzAG7OV5iOWPYfjn8q/g2f/0j3/++tnQXrJsE+64GOQK1zmQAjAZGbMvU4aYmqbd0Cgh/5Iutvd/muTPmmmy+usRX0qfI2WcxN57bX/8RxeQd/lvE+SChQMS3bHeY1O11novB1MFAxGsJGwKQG8NwL5l4Y9evPi+j+HblPUiIWJEIiQjRAF5LeVfnDSr3RsOaIKidV4s5ENQVIiC6WWdnqsB4q3oZ+PpWLOWUt2LoHkdMakUBVXQQrW+p9MA7/2z/qc/2v1X7fN/mT/4yf5Zc4mf5XwYq07Ggs/Krt1e9pvNZtO3bRNjDDEooaliGVsdLnDsKrdwsctX/V3b3sc0JtYYS+J9Cpepu0zdFOE1YgkoVsapjllFUG3X9VplIYiRc7nWkQVvnJs3E6KPUd41vMLC22BmJEQOzDEY6mDyQrkT2FN9RWJVVHGZ2OO+RIgN0bO2+dOLy+3l9dRvcwxh021CoL7v+r4jQjOVYIAGiTVioaLPNBv9ad5+9H6/+VHqMfzxy/d2U/pP5fWr2xHvkC2mcdNgrCWXWpwgV0oZ81RKDSH0KXSkfQmWudOmqckylawIHJQkU9i28b1IG7ETyYCgpqKAyIGIaZNak3mhnHvHS9FrPhtnJ+YJr9+DfFXyefkVAviYaWf/IqEZAloluhYVkFuyvHRdz9svHN9B9SLFH+927dX1dPGsbjeb9rqhHcWryJdc+3IKxxoFtwjXWK9ULgr0VXvcveL+IqSfcOj4g3F7/dfhpp2G16V+qiJM+0hTHadhzKNHbznnUrIqEDMyo2lTq1UFJORogLlWEyAwQEyhS9uIz8Ua1ZccgIhDSk3bdpFT8NFxPrZ4bjlY9euS2Vp+DXPk/4TX706+BK9rex2AgSkRGgAB07zrUMEQbkB2ohtFAbwhxaWnFICJU0wVdMpNnXqggS5f0vv36SrmZ2W6yqfddLoYputx3x+gR7ogugZ4pnYhVifZ4W2eGgkf0cWzi225ri/+bex+FG5L/vSTUfYa9gSSBdQAiJADEzNhiCForbkWJQw1t0DFQJmQmcAneishtta03PCO8Mej3TZJQwqpado2NYGCAlAIzukJzPjGKmREBFuqXPBQ0/8OL9e3Ku9UvOXXxnTOIqoqec0ATExMAH5p+BejvSD9xYbE1tktgUPf9A0oVdbhOOSbQ/i5PttfPLtmCsN4UEYKCQogM1yGbuy7Q6j3dT8cDjdy+inWbXj9C9Nf4ocf7/6v//k3P+rbX24P/+Xq9Sc3x4v/owc0NgREAfM5GrvdJQAy8zQOCNa3rU5jUpJchuEEm03bdoh0PB5qrYyG91z+nrY/avQvyf5DwFeABoKQWQwhxnh5edn3m2EcjoeDt5WrOjENcbmb3wF5p/AKbvYI1hmoZmYLMVQR4LPI70t6AelPU/0HBgRfW9V27dXV5cX2Ih9L/c2v7w8v7wtq/FE6sVZ+b3q/nsxG3UrqKhVBMCtjGcepL71IrePrZxo56P+H93a7u/yrP/rf/se/+V/6n//sk/swJS4xoVkgb13yETIxhr7fxhgRrsE8VLoIQ7nKU0uWiaxJPpv2eDyJYhBoDmB/swn/3UFeZ5gauA9A2PR9Q9Gnu4TATUpTCFPOMynmjfku74K8c3hF8O3X8/gq4hBjjCFwqIhIAXKGPNgfQft644wnYmKi8TgGZFHst/QR755VPPy8bfoLk0qQptMkpW5iJAECEwulmuUJclVV+lWX+jRu5K/rp7+4238UfgIg+Rfw/l819LOGVE6ILQARI4YYOfpeL9+agEjInqcoQCglSbFSp6TE3LZtKUWJCwbLir9E+LDt3h/qS5H7QIZohBEI0QzGcTocDqWU7WZjZiK68CplYVo/smavL8p35L/6jKCHn5eNFkuzNcBShoEHsvBX0Xjp/A9R6Lo+xmaz2V1eXl9eXe12l++997xWDYFTE1MKRKgq88y+UzHO9MGUb2naS50mFWHiFONMPiDskXshzIjYpJpI2QqQUaBoQIYovinODAljSC1uNmHbxm1VfJX395f16tUH7c8A/pb0NZthNSMCA0KmGFPTNk3bxhiJaTXZqCjMJMpSzOqEQDE53ZBj5MAGKKPqgeLzKlCmfc13IlMVrcv8bgshdH2/3WzbtnHCQyl5aRM4P/2PVeV+T/r1jR65B16vF/+XhqQ3WoJ8WRUixZh8oQUTEzMiOPudiYnnVa5OKjRTkWImZlZqrUBQxVS5qfai6I+FXvbMEUzUtxhkDEEthAjU1cySp0DQXfj4AiRQIzUFJECLMTBTa63vAVA1rGiFT8N0/D8PlmQ3Xo8nOOoByIKqigARiIqqzfuH5tbmua8ZAZCkSUEL5ykeh0k4tCmlRkyn6QSAjAF/hfv3FJ9l+5DkJspgCYOPPG6a5F2nZua0gVrr8ThvJHtEbYlfI98VXt2vPN9nYvOuh4V3Dg7MGMNC3HRrOQ9lCTGmGJEoxTalCMtuYhHxpevTNA37wXkezpQjAh+OTkQGUDkSAAPoHvOvaPfntX7A8jpRhUC+EHkOvwYwNUtF4nGsqXuDqmIGAJEZl43agGCqM5k6w/bUTf9w+uzq1z/+0Uex7fg4OEdGtKKaouSch2EIIURmWwjbBiqqCaIQ5ZBS1nacTsONPbumllVqzhkIu77lGE43lp6F5n3mT8P4ktM8cBHXMctLx++jt/5flO9Ov5pvNlu6LPyRZaT/w9M2my0zpZS8Dx0RvQ875+KmbRzz69evHabjOK63gO9wxbOZ2iLFY3BVJWaUZXzfieQXzUTa/KsSfx43p4s2NtOYx3Fwz5JiohCbYehU7muBEAANAWJgxDB/4DxbBcwQDGNsVZCoBg59irf3d88++Kjtd/0w3e/vAICQxBSNaq23t7fH4xE//JBCQAAmQrQpT32ziU3HZBalV3tm9R6mZtMQEUNDjWGf+8vQwwWMJlmss01KYz5JlZznEYVzw7fqG4Pu3hX5jv0BA4AmpbbtmGdacdd1IUYmXpafZ59gOo7j/f0ewO7v76vI6iCgU/a/hOCGy9CQh3UXs6OGCAAtkJn5Wvkmcuyp+elBPk7hSA1H7sNms2EmAEDDEIqB0Dja8YQhUQh+M5gZEc6T/2y15IYGhNiEYKlR7hROx9ubDz58cX19fX9/i4jIpBVSSr6y8PLysmkanOMt4Ja3zy4O4wBVr19sLvsO7oarzM/fC4cEk9I02ngs5Y5evyyDDNN9lkO2qeahIgosC529xdK/tH75KsPHLQEe/EdaQ5w1PPqyb4uLc/mlp+Lhoc2m53nvNbdt23Ut4jxAGBFLKYBYS5mm7POpp2kCQGfhm/redJ/aXt/EpnzpB+KZi2amznITMVWNMUhVYkHEQBiYowX+mPjji82/CLy1+hsLZBjAMAgUUqgxCvQwSa821SwBOUbwTcqmCAjA4IxbANOKAGg25XJ7GgzpYnN1OE3xdn9xuXvxo5989ptfqxKjYTJ6ps0utt2231JsDSNxwtQSKDelGY7jvR6HW2jvMQ3l/lfTjVo2qLnmMUtVUyi1ShGTed6if/mFqv550tXDvxeC66NOErh+XfjNAPDQx4hn7efnskZCBoBE3LaNc9FTjCk1IbAb8RiTt1CbmTf+m8EwzMuo3F9cJ5d7SR0e2ol/Fzl73fl3metYiBDmNcMcQ8TM8Pcp/ptKjHZiPBr6Snpg8CoZc06py7WOVYiNmBHZcDJRBUBw6JRaAiMhGmLT91dNxKlwMB5O0wfH4S+s+yBEPYmC7SYrJ7vdhMNFJGTFWtBG00O9GaWcsg+bL6Vi0ZiRKhyPOSsAgppIFfemVPTzY4jOfjojCSyPwBt39aOtxQI4Xt8k8trDt196Kc0gxMBE/qP3oa+TAEOIvj7FIyRYopazfZBaSh7HCQBynnzy1HonvKkVvuWxj7gMCAqB1dTMOHCTGg6BU0j3mzhmvGb5yPRvEQwBhADQ5mVAUyLKqqcxl2yqXb/jWbOaqoIZklorFhM2HKKlGHahZZOsuSW6+eNXxz8arbno8b0T3Na9yUvNex1eFoTbcQrlaJqlDDIcS83jOuXYB/AAgogiAOHSQrEYv2/zHD0qOfdfEQB8OTSAIfoWYDfo1DQNc/DH3QlbuoqtlOzDUGutp9PRV0ieTqeVrQcA3hy8drXj0r0JAIsT8gf5eot7YGZQSzW1EAI0wESRYoPMv+rgz8TeL/YPNJ4ggCIqGothkWIqYjXlKUwqAeWi1xQjka+X4cCc4pTYKFKDEKpaBpXAXAQ4Ku3qeD/pr7rr+z8X/Ify727lFQiEbOWAnzGy+chCU1iWcMwdVwZL6Eg+2hsMYGmt+YOcqUciYZlShojAzH2/Wdeed123RuilVB/O4WPibm5vpdZxHIdhOHu3Nyz5GwWCcytv87jP9TUrdhHR51R+jUvwW3kLK6PeBxWWWu7396WW3cXlqKhQy88ajta9sHRFr1+NaMygSIQhIEGextDHDXU7s7qlm+2RrzbQS65j2zZ931YRORatQznCuId8qnrK9S5AnV7fvp5yQSBqp/TP5IP6ohynox4QgDSAYsUK3uQwV4yZCHxPrHvD/iA6QHH22olJRd+BStXvJuHFixd93/sqs6ZpXDsCQK11mqb9fl9FTsfjEvR4sOWz4r4Yob/5yNf1V7z5yrNn+iihb8fHOiNvmxkwckgxRo5xylOrNUOvbbn8hEO044dl+/G1bKpo5i21lyE1arZhigx9OZYqiH3Mg8RfTTbIq+P9L4ebPNVcxnlwTBUR817U2WFAULAs+fb1pz/+8Y/Tq+Z0Gs2sYkUGPHe9DBCrGRLNZT6nPeAcXJ7lreXru6vxcfun/5SEtm2HcTwcjr6dzEfGwbI810MuXwT1297T3/y0vRHHfntnG9/8hy+B3+12TdNM00ggTdOFpsVCegf9R4z/LUiWXBiL2VAONyqKZkfZT939WCf9FAPnXEvVqrVqrXMVzWsfy826FhdmtSmit3d3u93u2bPnqnh/d7eO9MA3DhbPHvuc1f/dzuU7KOHly5eeZ/ZaM66O/XrW578evQFyT6Nt2+122zRNLjWmZKrDYRoGw9dYaCpjrmQwiZ5qLlqLAojmwlOp1U5ALCK2Mh/gC6flC+oNQdVKLp9++tmHH3602WzGcRjHCRFhjqrgy94HvmC7vqG8C0s3v0bC3d3duU9o5/f+QyPwQ3ro8Z6NnDMS7g/7OfYvdRiL5FPJWYup2piLaFUOoAKSwVRUEAkBxEB9+QAQLV0MCGCG8wjvr9RszsW1w2G/3e6aptlsttM86/hJfmsJ5/09nsw68/rg/Cqs7Obv+BC/LRGR4TTUIve39wZWoEINJhNoBUU1rGYBUU0AFKHCHOmAAhoQmqGqMi6hD/qy+nUKJeCX+o4PTv/d3d3773+w2+2Ox+M0jQ/B4Pzf+Wsf8Xn+g8pvwSdc56Y8UkFAMFCRkkvJRbNoLaqmhnM1zO0IKuAMPoN1Jo8hGhCQ/3Rm9xf+/gPd7PyPnQVVOde27Xa7XYxxf79fnFQHvT7qc/udCX3fB/ADEkTf6pGvr68vr66Wua2Ga1bkSf4pecLrdydmdjqdbm9vc87Pnz9n5rOY9tGHs9+NPOH1OxVVPRz2r1+/blvflOJq9Qms31Se8PqHFZxbzecWVQQrOe/v74bT8erqOsRk7iXb0hKx/Pm+D/wtlSe8/gHlTbAiISAYgkktr15+tt1d9Jsth2jgAd8TWP9pecLrdywIgL6UouT83nvv7Xa7p8TAN5cnvH6XstI1UVVfvnqVUrq+vur7zVMy6xvKE16/O/Hly2uDxt3d3d3dXYxpu92+k72Bfwh5wut3L3M9S2t5/erlNA5d2/RdCwYISEj4dFG+Wp5OzXcn57ReBECE4XQ8HvaEcHV5hUBrORy/iozwg5cnvH6PggBwPB5LKRcXu74/H3TwJF8uT3j9HsUMYBzHw/GIiC9evFhXMz/JV8kTXr9XMTOz+7u7Tz759Pr6+vLyEpGeYq+vkSe8fo+Cc88mQM75cDg8e/Ze27ZPKvZr5Amv35sshS9EgFLyp59+GkLo+y6E8KRiv0qe8PpWiIjc3+8Ph/1ud9F1/RNav0qe8PpWiAGo6qtXr9q2ubjYNSl930f0lsoTXr83sTd/MLDD4bDf7/u+v76+Xr1Y+7I/P1h5wuv3J/YgKwh//etfl1Kur6+3290yd/zz8kMG7BNe3wqxeTonqurNzc04jldXl6r6UBR70q4A8ITXt0XOZmUcDsfTaWjbdrPZeC/493pkb5c84fXtkHmkAZhBrWUYTrXWDz74kIif0rHn8oTXt0TemKo7jtN+f7i8vOj7npnXlW9rV80PVh7jPs53UNaRjP5/VRWREMJ2ux3HaV1DsAyT/OHKk359S2Wa8m9+85uLi4urq8uUGm8Ge/Jln/D6loqBlVJ+8/HHXdd1XWumuJQVfsigfcLr2ytmdvP6tZntdhebzdbM8MFx+IHKE17fUnFM5pyPx6MXaQHgaQ7cE17fcsH7+/tSa9/3fd8vxbAfrjzh9e0Vb48ZhvHu9haRPvroI+bwA0fsE17fWsFl2q7d3t7e3t4w8263/YH7A/8/AakPDV0BoncAAAAASUVORK5CYII=;" vertex="1" parent="1">
          <mxGeometry x="340" y="455.55" width="120" height="64.45" as="geometry" />
        </mxCell>
      </root>
    </mxGraphModel>
  </diagram>
  <diagram id="pO2kCdhq_2kGmIiFuPUm" name="Page-2">
    <mxGraphModel dx="1357" dy="778" grid="1" gridSize="10" guides="1" tooltips="1" connect="1" arrows="1" fold="1" page="1" pageScale="1" pageWidth="850" pageHeight="1100" math="0" shadow="0">
      <root>
        <mxCell id="sMouLhf3ZMDFLsBDXYyN-0" />
        <mxCell id="sMouLhf3ZMDFLsBDXYyN-1" parent="sMouLhf3ZMDFLsBDXYyN-0" />
      </root>
    </mxGraphModel>
  </diagram>
</mxfile>
